<svg id="ebmli3DtAjP1" xmlns="http://www.w3.org/2000/svg" xmlns:xlink="http://www.w3.org/1999/xlink" viewBox="0 0 1920 865" shape-rendering="geometricPrecision" text-rendering="geometricPrecision"><defs><linearGradient id="ebmli3DtAjP22-fill" x1="0" y1="0" x2="681" y2="0" spreadMethod="pad" gradientUnits="userSpaceOnUse" gradientTransform="translate(0 0)"><stop id="ebmli3DtAjP22-fill-0" offset="0%" stop-color="rgba(236,15,70,0)"/><stop id="ebmli3DtAjP22-fill-1" offset="53.1098%" stop-color="#ec0f46"/><stop id="ebmli3DtAjP22-fill-2" offset="100%" stop-color="rgba(236,15,70,0)"/></linearGradient></defs><g transform="translate(0-1.305289)"><circle id="ebmli3DtAjP3" r="534" transform="translate(960 776.431686)" fill="#ec0f37"/><g id="ebmli3DtAjP4"><path d="M923,523.5C795.5,614.5,656,667,488.5,704c-92,19.2-366,61.667-491.5,80.5v140h1942v-127.5c-240-16.5-442.5-70.808-509.5-89.5-211-55.5-315.5-113-376.5-145s-63-46.5-72-43c-20.8,9.2-47.333,6.5-58,4Z" fill="#121519"/><path d="M994.887,525.645c-7.211-5.655-9.842-7.718-13.887-6.145l-18.5,19-12.5,59-7,42.5l7,14v3l-12,13.5L954,659l8.5-9.5L967,648l2.5,1.5v12l-15.5,20c5.167-.167,16.8-.7,22-1.5s15.833-6.667,20.5-9.5l3-1l3.5,5.5l13-12.5l4.5-1l3.5,3l2,6l2.5-8l4-3.5l3,2.5l3,1l5-8.5c16.5.833,50.8,2.5,56,2.5c2.87,0,5.94,1.269,9.68,2.815c4.72,1.953,10.51,4.348,18.32,5.185c11.2,1.2,15.33,1.5,16,1.5l-12-10.5h13L1165,666l-16-16.5l21.5,6L1187,660l20.5,4.5-24-17h3.5l31,13.5l11,1.5-18.5-13l34,6l13.5-.846c-95.35-34.439-155.54-66.12-196.91-87.9-2.78-1.463-5.47-2.882-8.09-4.254-33.58-17.617-49.28-29.929-58.113-36.855Z" clip-rule="evenodd" fill="#a0a7c0" fill-rule="evenodd"/><path d="M981,519.5c-2.592,1.146-5.272,2.108-8,2.908L957,536.5L933,561l-10,21-2.5,16.5L918,609l-21.5,33L915,627.5l8,2h5l5-5.5h5l2,7l3,11l2.5-12.5l6-17l2-6.5l2.5-34.5l2.5-8L975,545l7-8.5-1-17Z" clip-rule="evenodd" fill="#fdb" fill-rule="evenodd"/><path d="M975,521.789c-11.351,3.7-23.717,4.452-34,3.991L905.5,545L855,589l-75,60v5.5l9.5-3L788,657l8.5,2-34,25.5c13.833-7,43-21.9,49-25.5l6.5,3l37-29v2.5L841,653l1.5,1.5L855,646c-3.167,3.833-11.2,12.4-18,16l12-3l3.5,4.5l13.5-9l5-1.5l9,4h6.5c9.5-12.5,29.8-39.7,35-48.5c2.485-4.205,2.12-7.46,1.699-11.218-.681-6.072-1.509-13.457,9.301-28.282c14-19.2,34.167-39.474,42.5-47.211Z" clip-rule="evenodd" fill="#929bba" fill-rule="evenodd"/><path d="M707,639.475c76.998-30.076,148.196-67.581,216-115.975c4.874,1.142,13.061,2.326,22.5,2.398-7.422,4.958-14.005,9.273-19.855,13.107l-.002.001C895.632,558.674,884.94,565.681,879.5,582l-3,4c-17.427,5.932-42.827,24.513-66.006,41.468-8.078,5.91-15.887,11.622-22.994,16.532-22,15.2-64.167,34-82.5,41.5c32.464-18.82,52.532-46.052,64.369-62.115.742-1.007,1.452-1.97,2.131-2.885v-1.5l-29,19l6-10.5c-26,14-77,32.5-99.5,39.5l58-27.525Z" fill="#f5e1bc"/></g><g id="ebmli3DtAjP10" transform="matrix(2.89 0 0 2.8-1825.2375-1267.410852)" opacity="0"><g mask="url(#ebmli3DtAjP17)"><g><path id="ebmli3DtAjP13" d="M437,746.5c98.593-8.567,394.444-8.698,446.5,0-186,30-375.167,12.5-446.5,0Z" opacity="0.23" fill="#d9d9d9"/><path id="ebmli3DtAjP14" d="M516,577.475c98.593-8.568,394.444-8.698,446.5,0-186,30-375.167,12.5-446.5,0Z" opacity="0.23" fill="#d9d9d9"/><path id="ebmli3DtAjP15" d="M914,646.475c98.59-8.568,394.44-8.698,446.5,0-186,30-375.167,12.5-446.5,0Z" opacity="0.23" fill="#d9d9d9"/><path id="ebmli3DtAjP16" d="M1044,720.475c98.59-8.568,394.44-8.698,446.5,0-186,30-375.17,12.5-446.5,0Z" opacity="0.23" fill="#d9d9d9"/></g><mask id="ebmli3DtAjP17" mask-type="alpha" x="-150%" y="-150%" height="400%" width="400%"><circle r="187.5" transform="translate(959.5 713.5)" fill="#ec0f37"/></mask></g></g><path id="ebmli3DtAjP19" d="M901.345333,194.512l-18.8,24.755999h11.109334L901.345333,194.512ZM883.4,226.097333L918.436666,320l-23.927333-93.902667h-11.109333Zm-34.182-6.829334h10.254667l16.236666-28.170665L849.218,219.267999Zm66.654667,0h9.4l-4.272668-23.048666-5.127332,23.048666ZM861.182,226.097333h-10.254667l62.382,91.342-52.127333-91.342Zm131.598-6.829334l-26.486667-28.170665l16.233334,28.170665h10.253333ZM977.513333,180L864.484,180L827,220.122l65.596667,76.829332-55.374-75.975999l30.669333-34.146h106.214666l30.673334,34.146-55.373333,75.975999L1015,220.122L977.513333,180Zm3.306666,46.097333l-52.129333,91.342l62.382667-91.342h-10.253334Zm-21.366666-6.829334L940.654666,194.512l7.692,24.755999h11.106667Zm-11.96,6.829334L923.563333,320L958.6,226.097333h-11.106667Zm-31.620666-.853334l5.127332,93.048667l5.127334-93.048667h-10.254666Z" transform="matrix(1.8 0 0-1.8-669.6 861.027464)" opacity="0" clip-rule="evenodd" fill="#ec0f46" fill-rule="evenodd"/><path id="ebmli3DtAjP20" d="M615.56,436.425l-6,2.475c2.025,2.85,4.35,7.35,5.925,10.35l6-2.55c-1.425-2.775-4.05-7.5-5.925-10.275Zm8.85-3.375l-5.925,2.4c2.025,2.85,4.425,7.2,6,10.35l6-2.55c-1.35-2.625-4.125-7.425-6.075-10.2ZM587.435,464.7l-6.6,6.825c8.775,5.55,22.95,15.975,29.55,22.125l7.125-8.475c-6.9-5.55-20.85-15.15-30.075-20.475Zm35.325-12.75l-7.65-4.725c-1.65.525-4.2.9-6.525.9h-21.3L583.76,456.6h25.425c-1.425,5.85-6.075,14.4-11.175,20.4-6.375,7.5-15.375,15.375-31.05,20.25l8.7,7.5c14.325-5.4,24-13.8,31.05-22.575c6.675-8.325,11.25-17.925,13.575-24.825.675-1.875,1.65-3.975,2.475-5.4ZM597.935,440.4l-10.8-3.375c-.675,2.55-2.325,6-3.45,7.875-3.75,6.45-10.725,16.8-23.85,24.9l8.1,6.225c10.725-7.425,20.325-18.9,25.425-27.975.9-1.575,2.775-5.025,4.575-7.65Zm38.85,28.5l4.65,9.45c11.85-3.525,24-9.15,32.475-14.175c8.85-5.325,18-12.375,24.825-19.275l-8.1-7.65c-4.875,5.925-13.425,13.425-21.075,18.15-8.4,5.175-19.35,10.05-32.775,13.5Zm31.2-8.625v31.275c0,3.3-.3,8.025-.6,9.825h11.925c-.525-1.875-.675-6.525-.675-9.825v-33.825l-10.65,2.55ZM731.64,436.8l-10.95,2.55c.825,1.425,1.5,3.225,2.475,6.525c2.625,8.925,11.325,42.15,13.35,49.425.75,2.55,1.275,5.55,1.725,7.575l11.1-2.625c-.675-1.875-1.875-5.4-2.325-7.05-2.325-7.65-10.425-37.575-13.875-49.725-.75-2.4-1.2-4.725-1.5-6.675Zm43.65,13.65l-6.825-4.95c-1.2.525-2.925,1.125-4.5,1.425-6.3,1.425-42.3,8.175-47.1,9-2.925.45-5.55.75-8.4.975l2.55,10.125c7.35-1.725,45-9.45,49.8-10.2-2.4,4.125-8.4,12-14.025,16.65l9.675,4.575c6.225-6.825,15.375-19.95,18.825-27.6Zm17.4-7.5v9.3c2.175-.075,4.575-.15,7.275-.15c3.675,0,29.475,0,36.15,0c2.7,0,4.725.075,6.675.15v-9.3c-1.725.15-4.2.3-6.675.3-6.675,0-29.7,0-36.15,0-2.7,0-5.1-.15-7.275-.3Zm25.8,26.4c0-.75,0-17.175,0-19.5h-10.275c0,2.475,0,16.275,0,19.125c0,4.425,0,14.475,0,19.425c0,7.575,3.375,12.225,17.1,12.225c6.975,0,15.525-.225,20.4-.525l.675-10.2c-6.075.675-12.675,1.05-19.35,1.05-6.075,0-8.55-1.5-8.55-5.55c0-2.625,0-12.6,0-16.05Zm-30.75-4.95v9.825c2.25-.15,6.075-.3,8.175-.3c6.825,0,40.05,0,45.45,0c1.65,0,5.025-.075,7.05.225v-9.675c-1.95.15-5.775.375-7.35.375-4.95,0-38.25,0-45.15,0-2.25,0-6.075-.3-8.175-.45Zm85.2-23.4l-7.125,7.575c5.475,3.75,14.925,11.925,18.825,16.125l7.65-7.8c-4.425-4.575-14.175-12.375-19.35-15.9Zm-9.45,49.95l6.375,9.9c10.5-1.8,20.175-5.925,27.825-10.5c12.075-7.275,22.05-17.625,27.675-27.825l-5.775-10.5c-4.8,10.125-14.55,21.525-27.375,29.175-7.275,4.275-16.95,8.1-28.725,9.75ZM980.94,442.2l-6.3,2.7c2.775,3.825,4.425,6.825,6.675,11.55l6.45-2.85c-1.65-3.45-4.725-8.25-6.825-11.4Zm9.825-4.05l-6.225,2.925c2.775,3.675,4.575,6.45,6.975,11.25l6.3-3.15c-1.65-3.375-4.8-8.025-7.05-11.025ZM951.09,491.925c0,3-.3,7.5-.75,10.425h11.7c-.3-3-.675-8.25-.675-10.425c0-5.55,0-34.8,0-43.125c0-3.075.375-6.375.675-9h-11.775c.525,2.625.825,6.3.825,9c0,6.375,0,37.425,0,43.125Zm8.025-32.775v10.8c8.175,2.7,20.85,7.5,29.325,11.925l4.275-10.35c-7.425-3.675-23.55-9.6-33.6-12.375Zm73.045-14.7c1.2,6.075,8.48,43.875,9.6,50.625.53,2.25.68,4.8,1.05,7.575l10.8-1.875c-.67-2.475-1.35-5.175-1.87-7.35-1.58-7.65-9-45.6-9.75-50.55-.3-1.8-.6-4.35-.75-5.775l-10.65,1.725c.6,1.725,1.12,3.525,1.57,5.625Zm-20.47,9.6l2.02,10.35c2.55-.675,4.5-1.125,6.83-1.575c5.62-.975,31.42-5.1,39.37-6.375c2.25-.3,5.33-.75,6.98-.825l-1.88-9.9c-1.8.525-4.65,1.2-6.97,1.575-6.75,1.35-33,5.4-39.38,6.15-2.4.3-4.65.45-6.97.6Zm.07,21.975l2.1,10.05c1.65-.45,4.28-.9,7.5-1.5c7.43-1.425,34.43-5.85,43.95-7.275c2.78-.45,5.85-.975,7.88-1.125l-1.95-9.9c-2.03.525-4.8,1.2-7.73,1.725-8.62,1.65-36,6.075-44.02,7.2-2.33.375-5.78.75-7.73.825Zm98.1-25.65l-10.12,2.4c.82,1.575,1.65,3.45,2.17,5.325c2.4,7.8,9.23,34.575,11.1,41.1.6,2.1,1.05,4.575,1.35,6.6l10.13-2.55c-.53-1.5-1.58-4.8-1.95-6.15-1.88-6.225-8.93-32.025-11.48-41.025-.45-1.95-.97-3.9-1.2-5.7Zm36,11.625l-6.07-4.275c-.98.45-2.48.9-3.75,1.2-5.33,1.2-35.33,6.9-39.38,7.5-2.47.45-4.57.675-6.9.9l2.33,8.925c6.15-1.35,36.67-7.725,40.57-8.4-2.02,3.675-7.2,9.975-11.1,13.425l8.33,4.125c5.25-5.55,12.75-16.875,15.97-23.4Zm66.98-17.175c0-2.4,1.95-4.35,4.35-4.35c2.32,0,4.35,1.95,4.35,4.35c0,2.325-2.03,4.275-4.35,4.275-2.4,0-4.35-1.95-4.35-4.275Zm-4.65,0c0,4.875,4.05,8.925,9,8.925s9-4.05,9-8.925c0-4.95-4.05-9-9-9s-9,4.05-9,9Zm-30.38-4.275h-11.02c.3,2.25.52,6.075.52,7.8c0,4.65,0,32.175,0,40.8c0,6.525,3.83,10.05,10.28,11.25c3.22.525,7.8.825,12.67.825c8.25,0,19.58-.45,26.7-1.5v-10.95c-6.22,1.65-18.3,2.55-26.17,2.55-3.3,0-6.38-.075-8.63-.45-3.37-.6-4.87-1.425-4.87-4.725c0-5.625,0-33.225,0-37.8c0-2.175.22-5.55.52-7.8Zm-4.95,23.025l.08,9.825c10.2-2.4,24.9-6.825,33.75-10.2c2.47-.975,5.85-2.4,8.7-3.6l-3.98-9.45c-3,1.725-5.55,2.925-8.17,4.05-7.88,3.225-20.7,7.275-30.38,9.375Zm89.1-.675l-6.67,6.825c8.77,5.55,23.02,16.05,29.55,22.2l7.2-8.55c-6.98-5.55-20.85-15.15-30.08-20.475Zm35.33-12.75l-7.65-4.725c-1.73.525-4.2.9-6.53.9h-21.37l-3.45,8.475h25.35c-1.43,5.85-6.08,14.475-11.1,20.4-6.45,7.5-15.38,15.375-31.05,20.25l8.7,7.5c14.32-5.4,23.92-13.8,30.97-22.575c6.75-8.325,11.33-17.925,13.58-24.825.67-1.875,1.65-3.975,2.55-5.4Zm-24.83-11.55l-10.87-3.375c-.68,2.625-2.25,6.075-3.38,7.875-3.82,6.525-10.72,16.8-23.85,24.9l8.03,6.225c10.8-7.425,20.4-18.9,25.42-27.975.9-1.575,2.85-5.025,4.65-7.65Zm70.05,57.75l6.3,5.175c.75-.525,1.65-1.35,3.23-2.175c8.47-4.275,19.2-12.375,25.42-20.475l-5.7-8.325c-5.1,7.275-12.45,13.2-18.6,15.825c0-4.575,0-33.15,0-39.15c0-3.375.53-6.375.53-6.525h-11.1c0,.15.52,3.075.52,6.45c0,6.075,0,39.75,0,43.725c0,2.025-.22,4.05-.6,5.475Zm-34.72-1.05l9.15,6.075c6.45-5.7,11.1-13.125,13.42-21.525c1.95-7.575,2.18-23.4,2.18-32.325c0-3.075.52-6.45.52-6.75h-11.02c.45,1.875.75,3.825.75,6.9c0,9-.08,23.25-2.25,29.625-2.03,6.45-6.08,13.35-12.75,18Z" transform="matrix(0 0 0 0 967.999991 433.774524)" fill="#fff"/><path id="ebmli3DtAjP21" d="M804.597,631.672l1.872,3.744c7.728-2.4,15.36-5.904,20.64-9.168c5.616-3.504,10.656-7.536,14.784-11.808l-3.216-3.024c-3.312,4.032-8.112,8.16-13.152,11.328-5.328,3.312-12.624,6.72-20.928,8.928Zm20.16-6.96v20.688c0,1.776-.144,4.176-.288,5.088h4.752c-.24-.912-.336-3.312-.336-5.088v-21.936l-4.128,1.248Zm62.16-10.224l-4.56-1.2c-1.344,6.864-4.608,14.736-9.024,20.304-4.368,5.424-10.992,10.272-18.192,12.768l3.36,3.456c6.912-2.832,13.776-8.16,18.096-13.68c4.08-5.184,6.96-12.24,8.784-17.424.432-1.2,1.008-2.928,1.536-4.224Zm42.672,1.968l-2.736,1.2c1.584,2.16,3.312,5.184,4.464,7.68l2.832-1.248c-1.104-2.304-3.312-5.856-4.56-7.632Zm6.192-2.448l-2.688,1.296c1.584,2.112,3.312,5.04,4.608,7.536l2.784-1.344c-1.152-2.208-3.456-5.808-4.704-7.488Zm-36.768,22.368l3.552,3.648c.768-.96,1.776-2.448,2.784-3.696c2.16-2.64,6.192-7.92,8.496-10.704c1.632-2.016,2.544-2.16,4.416-.384c2.016,2.016,6.432,6.768,9.216,9.888c3.12,3.504,7.344,8.448,10.752,12.576l3.312-3.504c-3.696-3.984-8.496-9.168-11.76-12.624-2.784-2.976-6.912-7.296-9.84-10.032-3.264-3.12-5.52-2.592-8.064.432-3.024,3.6-7.2,8.928-9.504,11.232-1.248,1.248-2.16,2.112-3.36,3.168Zm50.304-8.16v4.704c1.536-.096,4.08-.192,6.72-.192c3.552,0,22.704,0,26.352,0c2.112,0,4.128.144,5.136.192v-4.704c-1.104.096-2.784.288-5.184.288-3.552,0-22.8,0-26.304,0-2.736,0-5.232-.144-6.72-.288Zm56.613-16.08l-2.11,3.264c2.78,1.584,8.02,5.04,10.32,6.816l2.26-3.264c-2.12-1.536-7.64-5.232-10.47-6.816Zm-7.199,34.32l2.259,3.888c4.41-.912,11.04-3.12,15.89-5.952c7.68-4.512,14.3-10.704,18.48-17.136l-2.36-3.984c-3.84,6.768-10.17,13.056-18.14,17.616-4.9,2.736-10.85,4.656-16.129,5.568Zm0-23.52l-2.16,3.264c2.928,1.536,8.109,4.848,10.469,6.576l2.2-3.36c-2.06-1.488-7.68-4.944-10.509-6.48Zm51.459-.24v3.696c.91,0,3.65-.096,4.94-.096c2.64,0,16.18,0,17.76,0c0,1.44,0,17.664,0,22.704c0,1.008,0,2.16-.05,2.736h3.8c0-.72-.05-1.824-.05-2.592c0-4.08,0-22.224,0-23.904c0-.912,0-1.92.05-2.448-.68,0-1.88.048-2.98.048-3.89,0-15.84,0-18.53,0-1.29,0-4.03-.048-4.94-.144Zm1.05,11.376v3.744c.96-.096,2.69-.096,4.32-.096c2.45,0,17.81,0,19.2,0v-3.456c-1.39,0-16.75,0-19.2,0-1.63,0-3.36-.096-4.32-.192Zm-1.58,11.952v3.84c.77,0,2.45-.096,3.94-.096c2.73,0,18.81,0,21.21,0v-3.552c-2.11,0-18.48,0-21.21,0-1.68,0-3.17-.096-3.94-.192Zm48.77-32.16l-2.79,2.928c3.6,2.352,9.56,7.536,12,10.032l2.98-3.072c-2.64-2.64-8.83-7.632-12.19-9.888Zm-4.13,32.16l2.5,3.936c8.01-1.488,14.06-4.464,18.91-7.488c7.25-4.56,12.81-11.088,16.08-17.04l-2.31-4.128c-2.78,5.952-8.59,13.056-16.03,17.712-4.56,2.832-10.8,5.76-19.15,7.008Z" transform="matrix(0 0 0 0 968.193512 611.465308)" fill="#fff"/><rect id="ebmli3DtAjP22" width="681" height="1" rx="0" ry="0" transform="matrix(0 0 0 0 968.5 531.805289)" opacity="0.7" fill="url(#ebmli3DtAjP22-fill)"/></g>
<script><![CDATA[
!function(t,n){"object"==typeof exports&&"undefined"!=typeof module?module.exports=n():"function"==typeof __SVGATOR_DEFINE__&&__SVGATOR_DEFINE__.amd?__SVGATOR_DEFINE__(n):((t="undefined"!=typeof globalThis?globalThis:t||self).__SVGATOR_PLAYER__=t.__SVGATOR_PLAYER__||{},t.__SVGATOR_PLAYER__["5c7f360c"]=n())}(this,(function(){"use strict";function t(t,n){var e=Object.keys(t);if(Object.getOwnPropertySymbols){var r=Object.getOwnPropertySymbols(t);n&&(r=r.filter((function(n){return Object.getOwnPropertyDescriptor(t,n).enumerable}))),e.push.apply(e,r)}return e}function n(n){for(var e=1;e<arguments.length;e++){var r=null!=arguments[e]?arguments[e]:{};e%2?t(Object(r),!0).forEach((function(t){u(n,t,r[t])})):Object.getOwnPropertyDescriptors?Object.defineProperties(n,Object.getOwnPropertyDescriptors(r)):t(Object(r)).forEach((function(t){Object.defineProperty(n,t,Object.getOwnPropertyDescriptor(r,t))}))}return n}function e(t){return(e="function"==typeof Symbol&&"symbol"==typeof Symbol.iterator?function(t){return typeof t}:function(t){return t&&"function"==typeof Symbol&&t.constructor===Symbol&&t!==Symbol.prototype?"symbol":typeof t})(t)}function r(t,n){if(!(t instanceof n))throw new TypeError("Cannot call a class as a function")}function i(t,n){for(var e=0;e<n.length;e++){var r=n[e];r.enumerable=r.enumerable||!1,r.configurable=!0,"value"in r&&(r.writable=!0),Object.defineProperty(t,r.key,r)}}function o(t,n,e){return n&&i(t.prototype,n),e&&i(t,e),t}function u(t,n,e){return n in t?Object.defineProperty(t,n,{value:e,enumerable:!0,configurable:!0,writable:!0}):t[n]=e,t}function a(t){return(a=Object.setPrototypeOf?Object.getPrototypeOf:function(t){return t.__proto__||Object.getPrototypeOf(t)})(t)}function l(t,n){return(l=Object.setPrototypeOf||function(t,n){return t.__proto__=n,t})(t,n)}function s(){if("undefined"==typeof Reflect||!Reflect.construct)return!1;if(Reflect.construct.sham)return!1;if("function"==typeof Proxy)return!0;try{return Boolean.prototype.valueOf.call(Reflect.construct(Boolean,[],(function(){}))),!0}catch(t){return!1}}function f(t,n,e){return(f=s()?Reflect.construct:function(t,n,e){var r=[null];r.push.apply(r,n);var i=new(Function.bind.apply(t,r));return e&&l(i,e.prototype),i}).apply(null,arguments)}function c(t,n){if(n&&("object"==typeof n||"function"==typeof n))return n;if(void 0!==n)throw new TypeError("Derived constructors may only return object or undefined");return function(t){if(void 0===t)throw new ReferenceError("this hasn't been initialised - super() hasn't been called");return t}(t)}function h(t,n,e){return(h="undefined"!=typeof Reflect&&Reflect.get?Reflect.get:function(t,n,e){var r=function(t,n){for(;!Object.prototype.hasOwnProperty.call(t,n)&&null!==(t=a(t)););return t}(t,n);if(r){var i=Object.getOwnPropertyDescriptor(r,n);return i.get?i.get.call(e):i.value}})(t,n,e||t)}function v(t){return function(t){if(Array.isArray(t))return y(t)}(t)||function(t){if("undefined"!=typeof Symbol&&null!=t[Symbol.iterator]||null!=t["@@iterator"])return Array.from(t)}(t)||function(t,n){if(!t)return;if("string"==typeof t)return y(t,n);var e=Object.prototype.toString.call(t).slice(8,-1);"Object"===e&&t.constructor&&(e=t.constructor.name);if("Map"===e||"Set"===e)return Array.from(t);if("Arguments"===e||/^(?:Ui|I)nt(?:8|16|32)(?:Clamped)?Array$/.test(e))return y(t,n)}(t)||function(){throw new TypeError("Invalid attempt to spread non-iterable instance.\nIn order to be iterable, non-array objects must have a [Symbol.iterator]() method.")}()}function y(t,n){(null==n||n>t.length)&&(n=t.length);for(var e=0,r=new Array(n);e<n;e++)r[e]=t[e];return r}function g(t,n,e){if(Number.isInteger(t))return t;var r=Math.pow(10,n);return Math[e]((+t+Number.EPSILON)*r)/r}Number.isInteger||(Number.isInteger=function(t){return"number"==typeof t&&isFinite(t)&&Math.floor(t)===t}),Number.EPSILON||(Number.EPSILON=2220446049250313e-31);var d=p(Math.pow(10,-6));function p(t){var n=arguments.length>1&&void 0!==arguments[1]?arguments[1]:6;return g(t,n,"round")}function m(t,n){var e=arguments.length>2&&void 0!==arguments[2]?arguments[2]:d;return Math.abs(t-n)<e}p(Math.pow(10,-2)),p(Math.pow(10,-4));var b=Math.PI/180;function w(t){return t}function A(t,n,e){var r=1-e;return 3*e*r*(t*r+n*e)+e*e*e}function _(){var t=arguments.length>0&&void 0!==arguments[0]?arguments[0]:0,n=arguments.length>1&&void 0!==arguments[1]?arguments[1]:0,e=arguments.length>2&&void 0!==arguments[2]?arguments[2]:1,r=arguments.length>3&&void 0!==arguments[3]?arguments[3]:1;return t<0||t>1||e<0||e>1?null:m(t,n)&&m(e,r)?w:function(i){if(i<=0)return t>0?i*n/t:0===n&&e>0?i*r/e:0;if(i>=1)return e<1?1+(i-1)*(r-1)/(e-1):1===e&&t<1?1+(i-1)*(n-1)/(t-1):1;for(var o,u=0,a=1;u<a;){var l=A(t,e,o=(u+a)/2);if(m(i,l))break;l<i?u=o:a=o}return A(n,r,o)}}function x(){return 1}function k(t){return 1===t?1:0}function S(){var t=arguments.length>0&&void 0!==arguments[0]?arguments[0]:1,n=arguments.length>1&&void 0!==arguments[1]?arguments[1]:0;if(1===t){if(0===n)return k;if(1===n)return x}var e=1/t;return function(t){return t>=1?1:(t+=n*e)-t%e}}var O=Math.sin,j=Math.cos,M=Math.acos,E=Math.asin,P=Math.tan,I=Math.atan2,R=Math.PI/180,F=180/Math.PI,N=Math.sqrt,T=function(){function t(){var n=arguments.length>0&&void 0!==arguments[0]?arguments[0]:1,e=arguments.length>1&&void 0!==arguments[1]?arguments[1]:0,i=arguments.length>2&&void 0!==arguments[2]?arguments[2]:0,o=arguments.length>3&&void 0!==arguments[3]?arguments[3]:1,u=arguments.length>4&&void 0!==arguments[4]?arguments[4]:0,a=arguments.length>5&&void 0!==arguments[5]?arguments[5]:0;r(this,t),this.m=[n,e,i,o,u,a],this.i=null,this.w=null,this.s=null}return o(t,[{key:"determinant",get:function(){var t=this.m;return t[0]*t[3]-t[1]*t[2]}},{key:"isIdentity",get:function(){if(null===this.i){var t=this.m;this.i=1===t[0]&&0===t[1]&&0===t[2]&&1===t[3]&&0===t[4]&&0===t[5]}return this.i}},{key:"point",value:function(t,n){var e=this.m;return{x:e[0]*t+e[2]*n+e[4],y:e[1]*t+e[3]*n+e[5]}}},{key:"translateSelf",value:function(){var t=arguments.length>0&&void 0!==arguments[0]?arguments[0]:0,n=arguments.length>1&&void 0!==arguments[1]?arguments[1]:0;if(!t&&!n)return this;var e=this.m;return e[4]+=e[0]*t+e[2]*n,e[5]+=e[1]*t+e[3]*n,this.w=this.s=this.i=null,this}},{key:"rotateSelf",value:function(){var t=arguments.length>0&&void 0!==arguments[0]?arguments[0]:0;if(t%=360){var n=O(t*=R),e=j(t),r=this.m,i=r[0],o=r[1];r[0]=i*e+r[2]*n,r[1]=o*e+r[3]*n,r[2]=r[2]*e-i*n,r[3]=r[3]*e-o*n,this.w=this.s=this.i=null}return this}},{key:"scaleSelf",value:function(){var t=arguments.length>0&&void 0!==arguments[0]?arguments[0]:1,n=arguments.length>1&&void 0!==arguments[1]?arguments[1]:1;if(1!==t||1!==n){var e=this.m;e[0]*=t,e[1]*=t,e[2]*=n,e[3]*=n,this.w=this.s=this.i=null}return this}},{key:"skewSelf",value:function(t,n){if(n%=360,(t%=360)||n){var e=this.m,r=e[0],i=e[1],o=e[2],u=e[3];t&&(t=P(t*R),e[2]+=r*t,e[3]+=i*t),n&&(n=P(n*R),e[0]+=o*n,e[1]+=u*n),this.w=this.s=this.i=null}return this}},{key:"resetSelf",value:function(){var t=arguments.length>0&&void 0!==arguments[0]?arguments[0]:1,n=arguments.length>1&&void 0!==arguments[1]?arguments[1]:0,e=arguments.length>2&&void 0!==arguments[2]?arguments[2]:0,r=arguments.length>3&&void 0!==arguments[3]?arguments[3]:1,i=arguments.length>4&&void 0!==arguments[4]?arguments[4]:0,o=arguments.length>5&&void 0!==arguments[5]?arguments[5]:0,u=this.m;return u[0]=t,u[1]=n,u[2]=e,u[3]=r,u[4]=i,u[5]=o,this.w=this.s=this.i=null,this}},{key:"recomposeSelf",value:function(){var t=arguments.length>0&&void 0!==arguments[0]?arguments[0]:null,n=arguments.length>1&&void 0!==arguments[1]?arguments[1]:null,e=arguments.length>2&&void 0!==arguments[2]?arguments[2]:null,r=arguments.length>3&&void 0!==arguments[3]?arguments[3]:null,i=arguments.length>4&&void 0!==arguments[4]?arguments[4]:null;return this.isIdentity||this.resetSelf(),t&&(t.x||t.y)&&this.translateSelf(t.x,t.y),n&&this.rotateSelf(n),e&&(e.x&&this.skewSelf(e.x,0),e.y&&this.skewSelf(0,e.y)),!r||1===r.x&&1===r.y||this.scaleSelf(r.x,r.y),i&&(i.x||i.y)&&this.translateSelf(i.x,i.y),this}},{key:"decompose",value:function(){var t=arguments.length>0&&void 0!==arguments[0]?arguments[0]:0,n=arguments.length>1&&void 0!==arguments[1]?arguments[1]:0,e=this.m,r=e[0]*e[0]+e[1]*e[1],i=[[e[0],e[1]],[e[2],e[3]]],o=N(r);if(0===o)return{origin:{x:p(e[4]),y:p(e[5])},translate:{x:p(t),y:p(n)},scale:{x:0,y:0},skew:{x:0,y:0},rotate:0};i[0][0]/=o,i[0][1]/=o;var u=e[0]*e[3]-e[1]*e[2]<0;u&&(o=-o);var a=i[0][0]*i[1][0]+i[0][1]*i[1][1];i[1][0]-=i[0][0]*a,i[1][1]-=i[0][1]*a;var l=N(i[1][0]*i[1][0]+i[1][1]*i[1][1]);if(0===l)return{origin:{x:p(e[4]),y:p(e[5])},translate:{x:p(t),y:p(n)},scale:{x:p(o),y:0},skew:{x:0,y:0},rotate:0};i[1][0]/=l,i[1][1]/=l,a/=l;var s=0;return i[1][1]<0?(s=M(i[1][1])*F,i[0][1]<0&&(s=360-s)):s=E(i[0][1])*F,u&&(s=-s),a=I(a,N(i[0][0]*i[0][0]+i[0][1]*i[0][1]))*F,u&&(a=-a),{origin:{x:p(e[4]),y:p(e[5])},translate:{x:p(t),y:p(n)},scale:{x:p(o),y:p(l)},skew:{x:p(a),y:0},rotate:p(s)}}},{key:"clone",value:function(){var t=this.m;return new this.constructor(t[0],t[1],t[2],t[3],t[4],t[5])}},{key:"toString",value:function(){var t=arguments.length>0&&void 0!==arguments[0]?arguments[0]:" ";if(null===this.s){var n=this.m.map((function(t){return p(t)}));1===n[0]&&0===n[1]&&0===n[2]&&1===n[3]?this.s="translate("+n[4]+t+n[5]+")":this.s="matrix("+n.join(t)+")"}return this.s}}],[{key:"create",value:function(t){return t?Array.isArray(t)?f(this,v(t)):t instanceof this?t.clone():(new this).recomposeSelf(t.origin,t.rotate,t.skew,t.scale,t.translate):new this}}]),t}();function q(t,n,e){return t>=.5?e:n}function B(t,n,e){return 0===t||n===e?n:t*(e-n)+n}function D(t,n,e){var r=B(t,n,e);return r<=0?0:r}function L(t,n,e){var r=B(t,n,e);return r<=0?0:r>=1?1:r}function C(t,n,e){return 0===t?n:1===t?e:{x:B(t,n.x,e.x),y:B(t,n.y,e.y)}}function V(t,n,e){var r=function(t,n,e){return Math.round(B(t,n,e))}(t,n,e);return r<=0?0:r>=255?255:r}function G(t,n,e){return 0===t?n:1===t?e:{r:V(t,n.r,e.r),g:V(t,n.g,e.g),b:V(t,n.b,e.b),a:B(t,null==n.a?1:n.a,null==e.a?1:e.a)}}function z(t,n){for(var e=[],r=0;r<t;r++)e.push(n);return e}function Y(t,n){if(--n<=0)return t;var e=(t=Object.assign([],t)).length;do{for(var r=0;r<e;r++)t.push(t[r])}while(--n>0);return t}var $,U=function(){function t(n){r(this,t),this.list=n,this.length=n.length}return o(t,[{key:"setAttribute",value:function(t,n){for(var e=this.list,r=0;r<this.length;r++)e[r].setAttribute(t,n)}},{key:"removeAttribute",value:function(t){for(var n=this.list,e=0;e<this.length;e++)n[e].removeAttribute(t)}},{key:"style",value:function(t,n){for(var e=this.list,r=0;r<this.length;r++)e[r].style[t]=n}}]),t}(),Q=/-./g,H=function(t,n){return n.toUpperCase()};function J(t){return"function"==typeof t?t:q}function Z(t){return t?"function"==typeof t?t:Array.isArray(t)?function(t){var n=arguments.length>1&&void 0!==arguments[1]?arguments[1]:w;if(!Array.isArray(t))return n;switch(t.length){case 1:return S(t[0])||n;case 2:return S(t[0],t[1])||n;case 4:return _(t[0],t[1],t[2],t[3])||n}return n}(t,null):function(t,n){var e=arguments.length>2&&void 0!==arguments[2]?arguments[2]:w;switch(t){case"linear":return w;case"steps":return S(n.steps||1,n.jump||0)||e;case"bezier":case"cubic-bezier":return _(n.x1||0,n.y1||0,n.x2||0,n.y2||0)||e}return e}(t.type,t.value,null):null}function K(t,n,e){var r=arguments.length>3&&void 0!==arguments[3]&&arguments[3],i=n.length-1;if(t<=n[0].t)return r?[0,0,n[0].v]:n[0].v;if(t>=n[i].t)return r?[i,1,n[i].v]:n[i].v;var o,u=n[0],a=null;for(o=1;o<=i;o++){if(!(t>n[o].t)){a=n[o];break}u=n[o]}return null==a?r?[i,1,n[i].v]:n[i].v:u.t===a.t?r?[o,1,a.v]:a.v:(t=(t-u.t)/(a.t-u.t),u.e&&(t=u.e(t)),r?[o,t,e(t,u.v,a.v)]:e(t,u.v,a.v))}function W(t,n){var e=arguments.length>2&&void 0!==arguments[2]?arguments[2]:null;return t&&t.length?"function"!=typeof n?null:("function"!=typeof e&&(e=null),function(r){var i=K(r,t,n);return null!=i&&e&&(i=e(i)),i}):null}function X(t,n){return t.t-n.t}function tt(t,n,r,i,o){var u,a="@"===r[0],l="#"===r[0],s=$[r],f=q;switch(a?(u=r.substr(1),r=u.replace(Q,H)):l&&(r=r.substr(1)),e(s)){case"function":if(f=s(i,o,K,Z,r,a,n,t),l)return f;break;case"string":f=W(i,J(s));break;case"object":if((f=W(i,J(s.i),s.f))&&"function"==typeof s.u)return s.u(n,f,r,a,t)}return f?function(t,n,e){if(arguments.length>3&&void 0!==arguments[3]&&arguments[3])return t instanceof U?function(r){return t.style(n,e(r))}:function(r){return t.style[n]=e(r)};if(Array.isArray(n)){var r=n.length;return function(i){var o=e(i);if(null==o)for(var u=0;u<r;u++)t[u].removeAttribute(n);else for(var a=0;a<r;a++)t[a].setAttribute(n,o)}}return function(r){var i=e(r);null==i?t.removeAttribute(n):t.setAttribute(n,i)}}(n,r,f,a):null}function nt(t,n,r,i){if(!i||"object"!==e(i))return null;var o=null,u=null;return Array.isArray(i)?u=function(t){if(!t||!t.length)return null;for(var n=0;n<t.length;n++)t[n].e&&(t[n].e=Z(t[n].e));return t.sort(X)}(i):(u=i.keys,o=i.data||null),u?tt(t,n,r,u,o):null}function et(t,n,e){if(!e)return null;var r=[];for(var i in e)if(e.hasOwnProperty(i)){var o=nt(t,n,i,e[i]);o&&r.push(o)}return r.length?r:null}function rt(t,n){if(!n.settings.duration||n.settings.duration<0)return null;var e,r,i,o,u,a=function(t,n){if(!n)return null;var e=[];if(Array.isArray(n))for(var r=n.length,i=0;i<r;i++){var o=n[i];if(2===o.length){var u=null;if("string"==typeof o[0])u=t.getElementById(o[0]);else if(Array.isArray(o[0])){u=[];for(var a=0;a<o[0].length;a++)if("string"==typeof o[0][a]){var l=t.getElementById(o[0][a]);l&&u.push(l)}u=u.length?1===u.length?u[0]:new U(u):null}if(u){var s=et(t,u,o[1]);s&&(e=e.concat(s))}}}else for(var f in n)if(n.hasOwnProperty(f)){var c=t.getElementById(f);if(c){var h=et(t,c,n[f]);h&&(e=e.concat(h))}}return e.length?e:null}(t,n.elements);return a?(e=a,r=n.settings,i=r.duration,o=e.length,u=null,function(t,n){var a=r.iterations||1/0,l=(r.alternate&&a%2==0)^r.direction>0?i:0,s=t%i,f=1+(t-s)/i;n*=r.direction,r.alternate&&f%2==0&&(n=-n);var c=!1;if(f>a)s=l,c=!0,-1===r.fill&&(s=r.direction>0?0:i);else if(n<0&&(s=i-s),s===u)return!1;u=s;for(var h=0;h<o;h++)e[h](s);return c}):null}function it(t,n){for(var e=n.querySelectorAll("svg"),r=0;r<e.length;r++)if(e[r].id===t.root&&!e[r].svgatorAnimation)return e[r].svgatorAnimation=!0,e[r];return null}function ot(t){var n=function(t){return t.shadowRoot};return document?Array.from(t.querySelectorAll(":not("+["a","area","audio","br","canvas","circle","datalist","embed","g","head","hr","iframe","img","input","link","object","path","polygon","rect","script","source","style","svg","title","track","video"].join()+")")).filter(n).map(n):[]}function ut(t){var n=arguments.length>1&&void 0!==arguments[1]?arguments[1]:document,e=arguments.length>2&&void 0!==arguments[2]?arguments[2]:0,r=it(t,n);if(r)return r;if(e>=20)return null;for(var i=ot(n),o=0;o<i.length;o++){var u=ut(t,i[o],e+1);if(u)return u}return null}function at(t,n){if($=n,!t||!t.root||!Array.isArray(t.animations))return null;var e=ut(t);if(!e)return null;var r=t.animations.map((function(t){return rt(e,t)})).filter((function(t){return!!t}));return r.length?{svg:e,animations:r,animationSettings:t.animationSettings,options:t.options||void 0}:null}function lt(t){var n=arguments.length>1&&void 0!==arguments[1]?arguments[1]:null,e=arguments.length>2&&void 0!==arguments[2]?arguments[2]:Number,r=arguments.length>3&&void 0!==arguments[3]?arguments[3]:"undefined"!=typeof BigInt&&BigInt,i="0x"+(t.replace(/[^0-9a-fA-F]+/g,"")||27);return n&&r&&e.isSafeInteger&&!e.isSafeInteger(+i)?e(r(i))%n+n:+i}function st(t,n,e){return!t||!e||n>t.length?t:t.substring(0,n)+st(t.substring(n+1),e,e)}function ft(t){var n=arguments.length>1&&void 0!==arguments[1]?arguments[1]:27;return!t||t%n?t%n:[0,1].includes(n)?n:ft(t/n,n)}function ct(t,n,e){if(t&&t.length){var r=lt(e),i=ft(r)+5,o=st(t,ft(r,5),i);return o=o.replace(/\x7c$/g,"==").replace(/\x2f$/g,"="),o=function(t,n,e){var r=+("0x"+t.substring(0,4));t=t.substring(4);for(var i=lt(n,r)%r+e%27,o=[],u=0;u<t.length;u+=2)if("|"!==t[u]){var a=+("0x"+t[u]+t[u+1])-i;o.push(a)}else{var l=+("0x"+t.substring(u+1,u+1+4))-i;u+=3,o.push(l)}return String.fromCharCode.apply(String,o)}(o=(o=atob(o)).replace(/[\x41-\x5A]/g,""),n,r),o=JSON.parse(o)}}var ht=[{key:"alternate",def:!1},{key:"fill",def:1},{key:"iterations",def:0},{key:"direction",def:1},{key:"speed",def:1},{key:"fps",def:100}],vt=function(){function t(n,e){var i=this,o=arguments.length>2&&void 0!==arguments[2]?arguments[2]:null;r(this,t),this._id=0,this._running=!1,this._rollingBack=!1,this._animations=n,this._settings=e,(!o||o<"2022-05-02")&&delete this._settings.speed,ht.forEach((function(t){i._settings[t.key]=i._settings[t.key]||t.def})),this.duration=e.duration,this.offset=e.offset||0,this.rollbackStartOffset=0}return o(t,[{key:"alternate",get:function(){return this._settings.alternate}},{key:"fill",get:function(){return this._settings.fill}},{key:"iterations",get:function(){return this._settings.iterations}},{key:"direction",get:function(){return this._settings.direction}},{key:"speed",get:function(){return this._settings.speed}},{key:"fps",get:function(){return this._settings.fps}},{key:"maxFiniteDuration",get:function(){return this.iterations>0?this.iterations*this.duration:this.duration}},{key:"_apply",value:function(t){for(var n=arguments.length>1&&void 0!==arguments[1]?arguments[1]:{},e=this._animations,r=e.length,i=0,o=0;o<r;o++)n[o]?i++:(n[o]=e[o](t,1),n[o]&&i++);return i}},{key:"_rollback",value:function(t){var n=this,e=1/0,r=null;this.rollbackStartOffset=t,this._rollingBack=!0,this._running=!0;this._id=window.requestAnimationFrame((function i(o){if(n._rollingBack){null==r&&(r=o);var u=Math.round(t-(o-r)*n.speed);if(u>n.duration&&e!==1/0){var a=!!n.alternate&&u/n.duration%2>1,l=u%n.duration;u=(l+=a?n.duration:0)||n.duration}var s=(n.fps?1e3/n.fps:0)*n.speed,f=Math.max(0,u);f<=e-s&&(n.offset=f,e=f,n._apply(f));var c=n.iterations>0&&-1===n.fill&&u>=n.maxFiniteDuration;(u<=0||n.offset<u||c)&&n.stop(),n._id=window.requestAnimationFrame(i)}}))}},{key:"_start",value:function(){var t=this,n=arguments.length>0&&void 0!==arguments[0]?arguments[0]:0,e=-1/0,r=null,i={};this._running=!0;var o=function o(u){null==r&&(r=u);var a=Math.round((u-r)*t.speed+n),l=(t.fps?1e3/t.fps:0)*t.speed;if(a>=e+l&&!t._rollingBack&&(t.offset=a,e=a,t._apply(a,i)===t._animations.length))return void t.pause(!0);t._id=window.requestAnimationFrame(o)};this._id=window.requestAnimationFrame(o)}},{key:"_pause",value:function(){this._id&&window.cancelAnimationFrame(this._id),this._running=!1}},{key:"play",value:function(){if(!this._running)return this._rollingBack?this._rollback(this.offset):this._start(this.offset)}},{key:"stop",value:function(){this._pause(),this.offset=0,this.rollbackStartOffset=0,this._rollingBack=!1,this._apply(0)}},{key:"reachedToEnd",value:function(){return this.iterations>0&&this.offset>=this.iterations*this.duration}},{key:"restart",value:function(){var t=arguments.length>0&&void 0!==arguments[0]&&arguments[0];this.stop(t),this.play(t)}},{key:"pause",value:function(){this._pause()}},{key:"reverse",value:function(){this.direction=-this.direction}}],[{key:"build",value:function(t,n){delete t.animationSettings,t.options=ct(t.options,t.root,"5c7f360c"),t.animations.map((function(n){n.settings=ct(n.s,t.root,"5c7f360c"),delete n.s,t.animationSettings||(t.animationSettings=n.settings)}));var e=t.version;if(!(t=at(t,n)))return null;var r=t.options||{},i=new this(t.animations,t.animationSettings,e);return{el:t.svg,options:r,player:i}}},{key:"push",value:function(t){return this.build(t)}},{key:"init",value:function(){var t=this,n=window.__SVGATOR_PLAYER__&&window.__SVGATOR_PLAYER__["5c7f360c"];Array.isArray(n)&&n.splice(0).forEach((function(n){return t.build(n)}))}}]),t}();function yt(t){return p(t)+""}function gt(t){var n=arguments.length>1&&void 0!==arguments[1]?arguments[1]:" ";return t&&t.length?t.map(yt).join(n):""}function dt(t){if(!t)return"transparent";if(null==t.a||t.a>=1){var n=function(t){return 1===(t=parseInt(t).toString(16)).length?"0"+t:t},e=function(t){return t.charAt(0)===t.charAt(1)},r=n(t.r),i=n(t.g),o=n(t.b);return e(r)&&e(i)&&e(o)&&(r=r.charAt(0),i=i.charAt(0),o=o.charAt(0)),"#"+r+i+o}return"rgba("+t.r+","+t.g+","+t.b+","+t.a+")"}function pt(t){return t?"url(#"+t+")":"none"}!function(){for(var t=0,n=["ms","moz","webkit","o"],e=0;e<n.length&&!window.requestAnimationFrame;++e)window.requestAnimationFrame=window[n[e]+"RequestAnimationFrame"],window.cancelAnimationFrame=window[n[e]+"CancelAnimationFrame"]||window[n[e]+"CancelRequestAnimationFrame"];window.requestAnimationFrame||(window.requestAnimationFrame=function(n){var e=Date.now(),r=Math.max(0,16-(e-t)),i=window.setTimeout((function(){n(e+r)}),r);return t=e+r,i},window.cancelAnimationFrame=window.clearTimeout)}();var mt={f:null,i:function(t,n,e){return 0===t?n:1===t?e:{x:D(t,n.x,e.x),y:D(t,n.y,e.y)}},u:function(t,n){return function(e){var r=n(e);t.setAttribute("rx",yt(r.x)),t.setAttribute("ry",yt(r.y))}}},bt={f:null,i:function(t,n,e){return 0===t?n:1===t?e:{width:D(t,n.width,e.width),height:D(t,n.height,e.height)}},u:function(t,n){return function(e){var r=n(e);t.setAttribute("width",yt(r.width)),t.setAttribute("height",yt(r.height))}}};Object.freeze({M:2,L:2,Z:0,H:1,V:1,C:6,Q:4,T:2,S:4,A:7});var wt={},At=null;function _t(t){var n=function(){if(At)return At;if("object"!==("undefined"==typeof document?"undefined":e(document))||!document.createElementNS)return{};var t=document.createElementNS("http://www.w3.org/2000/svg","svg");return t&&t.style?(t.style.position="absolute",t.style.opacity="0.01",t.style.zIndex="-9999",t.style.left="-9999px",t.style.width="1px",t.style.height="1px",At={svg:t}):{}}().svg;if(!n)return function(t){return null};var r=document.createElementNS(n.namespaceURI,"path");r.setAttributeNS(null,"d",t),r.setAttributeNS(null,"fill","none"),r.setAttributeNS(null,"stroke","none"),n.appendChild(r);var i=r.getTotalLength();return function(t){var n=r.getPointAtLength(i*t);return{x:n.x,y:n.y}}}function xt(t){return wt[t]?wt[t]:wt[t]=_t(t)}function kt(t,n,e,r){if(!t||!r)return!1;var i=["M",t.x,t.y];if(n&&e&&(i.push("C"),i.push(n.x),i.push(n.y),i.push(e.x),i.push(e.y)),n?!e:e){var o=n||e;i.push("Q"),i.push(o.x),i.push(o.y)}return n||e||i.push("L"),i.push(r.x),i.push(r.y),i.join(" ")}function St(t,n,e,r){var i=arguments.length>4&&void 0!==arguments[4]?arguments[4]:1,o=kt(t,n,e,r),u=xt(o);try{return u(i)}catch(t){return null}}function Ot(t,n,e){return t+(n-t)*e}function jt(t,n,e){var r=arguments.length>3&&void 0!==arguments[3]&&arguments[3],i={x:Ot(t.x,n.x,e),y:Ot(t.y,n.y,e)};return r&&(i.a=Mt(t,n)),i}function Mt(t,n){return Math.atan2(n.y-t.y,n.x-t.x)}function Et(t,n,e,r){var i=1-r;return i*i*t+2*i*r*n+r*r*e}function Pt(t,n,e,r){return 2*(1-r)*(n-t)+2*r*(e-n)}function It(t,n,e,r){var i=arguments.length>4&&void 0!==arguments[4]&&arguments[4],o=St(t,n,null,e,r);return o||(o={x:Et(t.x,n.x,e.x,r),y:Et(t.y,n.y,e.y,r)}),i&&(o.a=Rt(t,n,e,r)),o}function Rt(t,n,e,r){return Math.atan2(Pt(t.y,n.y,e.y,r),Pt(t.x,n.x,e.x,r))}function Ft(t,n,e,r,i){var o=i*i;return i*o*(r-t+3*(n-e))+3*o*(t+e-2*n)+3*i*(n-t)+t}function Nt(t,n,e,r,i){var o=1-i;return 3*(o*o*(n-t)+2*o*i*(e-n)+i*i*(r-e))}function Tt(t,n,e,r,i){var o=arguments.length>5&&void 0!==arguments[5]&&arguments[5],u=St(t,n,e,r,i);return u||(u={x:Ft(t.x,n.x,e.x,r.x,i),y:Ft(t.y,n.y,e.y,r.y,i)}),o&&(u.a=qt(t,n,e,r,i)),u}function qt(t,n,e,r,i){return Math.atan2(Nt(t.y,n.y,e.y,r.y,i),Nt(t.x,n.x,e.x,r.x,i))}function Bt(t,n,e){var r=arguments.length>3&&void 0!==arguments[3]&&arguments[3];if(Lt(n)){if(Ct(e))return It(n,e.start,e,t,r)}else if(Lt(e)){if(Vt(n))return It(n,n.end,e,t,r)}else{if(Vt(n))return Ct(e)?Tt(n,n.end,e.start,e,t,r):It(n,n.end,e,t,r);if(Ct(e))return It(n,e.start,e,t,r)}return jt(n,e,t,r)}function Dt(t,n,e){var r=Bt(t,n,e,!0);return r.a=function(t){return arguments.length>1&&void 0!==arguments[1]&&arguments[1]?t+Math.PI:t}(r.a)/b,r}function Lt(t){return!t.type||"corner"===t.type}function Ct(t){return null!=t.start&&!Lt(t)}function Vt(t){return null!=t.end&&!Lt(t)}var Gt=new T;var zt={f:yt,i:B},Yt={f:yt,i:L};function $t(t,n,e){return t.map((function(t){return function(t,n,e){var r=t.v;if(!r||"g"!==r.t||r.s||!r.v||!r.r)return t;var i=e.getElementById(r.r),o=i&&i.querySelectorAll("stop")||[];return r.s=r.v.map((function(t,n){var e=o[n]&&o[n].getAttribute("offset");return{c:t,o:e=p(parseInt(e)/100)}})),delete r.v,t}(t,0,e)}))}var Ut={gt:"gradientTransform",c:{x:"cx",y:"cy"},rd:"r",f:{x:"x1",y:"y1"},to:{x:"x2",y:"y2"}};function Qt(t,n,r,i,o,u,a,l){return $t(t,0,l),n=function(t,n,e){for(var r,i,o,u=t.length-1,a={},l=0;l<=u;l++)(r=t[l]).e&&(r.e=n(r.e)),r.v&&"g"===(i=r.v).t&&i.r&&(o=e.getElementById(i.r))&&(a[i.r]={e:o,s:o.querySelectorAll("stop")});return a}(t,i,l),function(i){var o=r(i,t,Ht);if(!o)return"none";if("c"===o.t)return dt(o.v);if("g"===o.t){if(!n[o.r])return pt(o.r);var u=n[o.r];return function(t,n){for(var e=t.s,r=e.length;r<n.length;r++){var i=e[e.length-1].cloneNode();i.id=Kt(i.id),t.e.appendChild(i),e=t.s=t.e.querySelectorAll("stop")}for(var o=0,u=e.length,a=n.length-1;o<u;o++)e[o].setAttribute("stop-color",dt(n[Math.min(o,a)].c)),e[o].setAttribute("offset",n[Math.min(o,a)].o)}(u,o.s),Object.keys(Ut).forEach((function(t){if(void 0!==o[t])if("object"!==e(Ut[t])){var n,r="gt"===t?(n=o[t],Array.isArray(n)?"matrix("+n.join(" ")+")":""):o[t],i=Ut[t];u.e.setAttribute(i,r)}else Object.keys(Ut[t]).forEach((function(n){if(void 0!==o[t][n]){var e=o[t][n],r=Ut[t][n];u.e.setAttribute(r,e)}}))})),pt(o.r)}return"none"}}function Ht(t,e,r){if(0===t)return e;if(1===t)return r;if(e&&r){var i=e.t;if(i===r.t)switch(e.t){case"c":return{t:i,v:G(t,e.v,r.v)};case"g":if(e.r===r.r){var o={t:i,s:Jt(t,e.s,r.s),r:e.r};return e.gt&&r.gt&&(o.gt=function(t,n,e){var r=n.length;if(r!==e.length)return q(t,n,e);for(var i=new Array(r),o=0;o<r;o++)i[o]=B(t,n[o],e[o]);return i}(t,e.gt,r.gt)),e.c?(o.c=C(t,e.c,r.c),o.rd=D(t,e.rd,r.rd)):e.f&&(o.f=C(t,e.f,r.f),o.to=C(t,e.to,r.to)),o}}if("c"===e.t&&"g"===r.t||"c"===r.t&&"g"===e.t){var u="c"===e.t?e:r,a="g"===e.t?n({},e):n({},r),l=a.s.map((function(t){return{c:u.v,o:t.o}}));return a.s="c"===e.t?Jt(t,l,a.s):Jt(t,a.s,l),a}}return q(t,e,r)}function Jt(t,n,e){if(n.length===e.length)return n.map((function(n,r){return Zt(t,n,e[r])}));for(var r=Math.max(n.length,e.length),i=[],o=0;o<r;o++){var u=Zt(t,n[Math.min(o,n.length-1)],e[Math.min(o,e.length-1)]);i.push(u)}return i}function Zt(t,n,e){return{o:L(t,n.o,e.o||0),c:G(t,n.c,e.c||{})}}function Kt(t){return t.replace(/-fill-([0-9]+)$/,(function(t,n){return"-fill-"+(+n+1)}))}var Wt={fill:Qt,"fill-opacity":Yt,stroke:Qt,"stroke-opacity":Yt,"stroke-width":zt,"stroke-dashoffset":{f:yt,i:B},"stroke-dasharray":{f:function(t){var n=arguments.length>1&&void 0!==arguments[1]?arguments[1]:" ";return t&&t.length>0&&(t=t.map((function(t){return p(t,4)}))),gt(t,n)},i:function(t,n,e){var r,i,o,u=n.length,a=e.length;if(u!==a)if(0===u)n=z(u=a,0);else if(0===a)a=u,e=z(u,0);else{var l=(o=(r=u)*(i=a)/function(t,n){for(var e;n;)e=n,n=t%n,t=e;return t||1}(r,i))<0?-o:o;n=Y(n,Math.floor(l/u)),e=Y(e,Math.floor(l/a)),u=a=l}for(var s=[],f=0;f<u;f++)s.push(p(D(t,n[f],e[f])));return s}},opacity:Yt,transform:function(t,n,r,i){if(!(t=function(t,n){if(!t||"object"!==e(t))return null;var r=!1;for(var i in t)t.hasOwnProperty(i)&&(t[i]&&t[i].length?(t[i].forEach((function(t){t.e&&(t.e=n(t.e))})),r=!0):delete t[i]);return r?t:null}(t,i)))return null;var o=function(e,i,o){var u=arguments.length>3&&void 0!==arguments[3]?arguments[3]:null;return t[e]?r(i,t[e],o):n&&n[e]?n[e]:u};return n&&n.a&&t.o?function(n){var e=r(n,t.o,Dt);return Gt.recomposeSelf(e,o("r",n,B,0)+e.a,o("k",n,C),o("s",n,C),o("t",n,C)).toString()}:function(t){return Gt.recomposeSelf(o("o",t,Bt,null),o("r",t,B,0),o("k",t,C),o("s",t,C),o("t",t,C)).toString()}},r:zt,"#size":bt,"#radius":mt,_:function(t,n){if(Array.isArray(t))for(var e=0;e<t.length;e++)this[t[e]]=n;else this[t]=n}},Xt=function(t){!function(t,n){if("function"!=typeof n&&null!==n)throw new TypeError("Super expression must either be null or a function");t.prototype=Object.create(n&&n.prototype,{constructor:{value:t,writable:!0,configurable:!0}}),n&&l(t,n)}(u,t);var n,e,i=(n=u,e=s(),function(){var t,r=a(n);if(e){var i=a(this).constructor;t=Reflect.construct(r,arguments,i)}else t=r.apply(this,arguments);return c(this,t)});function u(){return r(this,u),i.apply(this,arguments)}return o(u,null,[{key:"build",value:function(t){var n=h(a(u),"build",this).call(this,t,Wt);if(!n)return null;n.el,n.options,function(t,n,e){t.play()}(n.player)}}]),u}(vt);return Xt.init(),Xt}));
(function(s,i,o,w,d,a,b){w[o]=w[o]||{};w[o][s]=w[o][s]||[];w[o][s].push(i);})('5c7f360c',{"root":"ebmli3DtAjP1","version":"2022-05-04","animations":[{"elements":{"ebmli3DtAjP3":{"transform":{"data":{"t":{"x":-6.944444,"y":0.000017}},"keys":{"o":[{"t":0,"v":{"x":966.944444,"y":776.431669,"type":"corner"},"e":[0,0,0.58,1]},{"t":1200,"v":{"x":962.5,"y":432.027458,"type":"corner"}},{"t":1500,"v":{"x":961.75,"y":432.02747,"type":"corner"}},{"t":1600,"v":{"x":961.5,"y":432.027466,"type":"corner"}},{"t":2500,"v":{"x":957.24,"y":432.854211,"type":"corner"}}],"s":[{"t":0,"v":{"x":1,"y":1},"e":[0,0,0.58,1]},{"t":1500,"v":{"x":0.36,"y":0.36}},{"t":1900,"v":{"x":0.36,"y":-0.36}},{"t":2100,"v":{"x":0.36,"y":0.36}}]}},"opacity":[{"t":0,"v":1},{"t":1500,"v":1},{"t":1800,"v":0},{"t":3000,"v":0}]},"ebmli3DtAjP4":{"transform":{"data":{"t":{"x":-968,"y":-721.744568}},"keys":{"o":[{"t":0,"v":{"x":968,"y":721.744568,"type":"corner"},"e":[0,0,0.58,1]},{"t":1200,"v":{"x":968,"y":1142.755432,"type":"corner"}}]}}},"ebmli3DtAjP10":{"transform":{"data":{"t":{"x":-963.75,"y":-667.032349}},"keys":{"o":[{"t":0,"v":{"x":960,"y":600.279725,"type":"corner"},"e":[0,0,0.58,1]},{"t":1200,"v":{"x":960,"y":374.589844,"type":"corner"}}],"s":[{"t":0,"v":{"x":2.89,"y":2.8},"e":[0,0,0.58,1]},{"t":1500,"v":{"x":1.032335,"y":1}}]}},"opacity":[{"t":0,"v":0},{"t":300,"v":0,"e":[0,0,0.58,1]},{"t":900,"v":1},{"t":1900,"v":0},{"t":3000,"v":0}]},"ebmli3DtAjP13":{"transform":{"data":{"t":{"x":-660.25,"y":-751.545044}},"keys":{"o":[{"t":1000,"v":{"x":660.25,"y":751.545044,"type":"corner"}},{"t":1500,"v":{"x":549.186134,"y":751.545044,"type":"corner"}}]}}},"ebmli3DtAjP14":{"transform":{"data":{"t":{"x":-739.25,"y":-582.519836}},"keys":{"o":[{"t":1000,"v":{"x":739.25,"y":582.519836,"type":"corner"}},{"t":1500,"v":{"x":630.967561,"y":586.125764,"type":"corner"}}]}}},"ebmli3DtAjP15":{"transform":{"data":{"t":{"x":-1137.25,"y":-651.519836}},"keys":{"o":[{"t":1000,"v":{"x":1137.25,"y":651.519836,"type":"corner"}},{"t":1500,"v":{"x":1290.941199,"y":647.913909,"type":"corner"}},{"t":1510,"v":{"x":1137.25,"y":651.519836,"type":"corner"}}]}}},"ebmli3DtAjP16":{"transform":{"data":{"t":{"x":-1267.25,"y":-725.519836}},"keys":{"o":[{"t":1000,"v":{"x":1267.25,"y":725.519836,"type":"corner"}},{"t":1500,"v":{"x":1347.588582,"y":725.519836,"type":"corner"}},{"t":1510,"v":{"x":1267.25,"y":725.519836,"type":"corner"}}]}}},"ebmli3DtAjP19":{"transform":{"data":{"t":{"x":-905.333333,"y":-238.333333}},"keys":{"o":[{"t":1700,"v":{"x":959.999999,"y":432.027465,"type":"corner"},"e":[0,0,0.58,1]},{"t":2600,"v":{"x":959.999999,"y":260,"type":"corner"}}],"s":[{"t":1700,"v":{"x":1.8,"y":-1.8},"e":[0.42,0,0.58,1]},{"t":2100,"v":{"x":1.8,"y":1.8}},{"t":2800,"v":{"x":1,"y":1}}]}},"opacity":[{"t":0,"v":0},{"t":1700,"v":0},{"t":1900,"v":1}]},"ebmli3DtAjP20":{"transform":{"data":{"o":{"x":967.999991,"y":433.774524,"type":"corner"},"t":{"x":-968.647491,"y":-469.424988}},"keys":{"s":[{"t":2000,"v":{"x":0,"y":0},"e":[0,0,0.58,1]},{"t":2600,"v":{"x":1,"y":1}}]}}},"ebmli3DtAjP21":{"transform":{"data":{"o":{"x":968.193512,"y":611.465308,"type":"corner"},"t":{"x":-968.193512,"y":-631.576019}},"keys":{"s":[{"t":2500,"v":{"x":0,"y":0},"e":[0,0,0.58,1]},{"t":2900,"v":{"x":1,"y":1}}]}}},"ebmli3DtAjP22":{"transform":{"data":{"o":{"x":968.5,"y":531.805289,"type":"corner"},"t":{"x":-340.5,"y":-0.5}},"keys":{"s":[{"t":2000,"v":{"x":0,"y":0},"e":[0,0,0.58,1]},{"t":2600,"v":{"x":1,"y":1}}]}}}},"s":"MIDA1ZGE5NTA5MmEzYTKA4ZmEySzk3OWQ5Y0IN1MDY4NjE1ZTVlTTVlJNWE1MDkyOTdhMDkzOFTFhMjk3OWQ5YzUwNjVg1ZjVhNTBROTdhMjkQzYTA4ZmEyUzk3STlkUVDljYTE1MDY4NWY1YHTUwOTQ5NzlhTjlhNTIA2ODVmNWE1MDhmOWFUhMk05M2EwOWM4ZmEyUOTM1ME82ODk0OGY5YFWExOTM1YTUwYTE5ZTHkzOTM5MjUwNjg1Zk8N1YTUwOTQ5ZWExNTA2FODVmNWU1ZUFhYg|"}],"options":"MWDAxMDg4MmZLODA4MVFc2ZU83ZjgxMmY0NzJRmNzk3YzZlNzEyZjhhWTg|"},'__SVGATOR_PLAYER__',window,document)
]]></script>
</svg>
