<svg id="animaite" xmlns="http://www.w3.org/2000/svg" xmlns:xlink="http://www.w3.org/1999/xlink" viewBox="0 0 1920 865" shape-rendering="geometricPrecision" text-rendering="geometricPrecision"><defs><linearGradient id="animaite-u-br-fill" x1="0" y1="0" x2="681" y2="0" spreadMethod="pad" gradientUnits="userSpaceOnUse" gradientTransform="translate(0 0)"><stop id="animaite-u-br-fill-0" offset="0%" stop-color="rgba(236,15,70,0)"/><stop id="animaite-u-br-fill-1" offset="53.1098%" stop-color="#ec0f46"/><stop id="animaite-u-br-fill-2" offset="100%" stop-color="rgba(236,15,70,0)"/></linearGradient></defs><g id="animaite-u-animaite" transform="translate(0-1.305289)"><circle id="animaite-u-sun" r="534" transform="translate(960 776.431686)" fill="#ec0f37"/><g id="animaite-u-mountain"><path id="animaite-u-vector-1" d="M923,523.5C795.5,614.5,656,667,488.5,704c-92,19.2-366,61.667-491.5,80.5v140h1942v-127.5c-240-16.5-442.5-70.808-509.5-89.5-211-55.5-315.5-113-376.5-145s-63-46.5-72-43c-20.8,9.2-47.333,6.5-58,4Z" fill="#121519"/><path id="animaite-u-vector-5" d="M994.887,525.645c-7.211-5.655-9.842-7.718-13.887-6.145l-18.5,19-12.5,59-7,42.5l7,14v3l-12,13.5L954,659l8.5-9.5L967,648l2.5,1.5v12l-15.5,20c5.167-.167,16.8-.7,22-1.5s15.833-6.667,20.5-9.5l3-1l3.5,5.5l13-12.5l4.5-1l3.5,3l2,6l2.5-8l4-3.5l3,2.5l3,1l5-8.5c16.5.833,50.8,2.5,56,2.5c2.87,0,5.94,1.269,9.68,2.815c4.72,1.953,10.51,4.348,18.32,5.185c11.2,1.2,15.33,1.5,16,1.5l-12-10.5h13L1165,666l-16-16.5l21.5,6L1187,660l20.5,4.5-24-17h3.5l31,13.5l11,1.5-18.5-13l34,6l13.5-.846c-95.35-34.439-155.54-66.12-196.91-87.9-2.78-1.463-5.47-2.882-8.09-4.254-33.58-17.617-49.28-29.929-58.113-36.855Z" clip-rule="evenodd" fill="#a0a7c0" fill-rule="evenodd"/><path id="animaite-u-vector-4" d="M981,519.5c-2.592,1.146-5.272,2.108-8,2.908L957,536.5L933,561l-10,21-2.5,16.5L918,609l-21.5,33L915,627.5l8,2h5l5-5.5h5l2,7l3,11l2.5-12.5l6-17l2-6.5l2.5-34.5l2.5-8L975,545l7-8.5-1-17Z" clip-rule="evenodd" fill="#fdb" fill-rule="evenodd"/><path id="animaite-u-vector-3" d="M975,521.789c-11.351,3.7-23.717,4.452-34,3.991L905.5,545L855,589l-75,60v5.5l9.5-3L788,657l8.5,2-34,25.5c13.833-7,43-21.9,49-25.5l6.5,3l37-29v2.5L841,653l1.5,1.5L855,646c-3.167,3.833-11.2,12.4-18,16l12-3l3.5,4.5l13.5-9l5-1.5l9,4h6.5c9.5-12.5,29.8-39.7,35-48.5c2.485-4.205,2.12-7.46,1.699-11.218-.681-6.072-1.509-13.457,9.301-28.282c14-19.2,34.167-39.474,42.5-47.211Z" clip-rule="evenodd" fill="#929bba" fill-rule="evenodd"/><path id="animaite-u-vector-2" d="M707,639.475c76.998-30.076,148.196-67.581,216-115.975c4.874,1.142,13.061,2.326,22.5,2.398-7.422,4.958-14.005,9.273-19.855,13.107l-.002.001C895.632,558.674,884.94,565.681,879.5,582l-3,4c-17.427,5.932-42.827,24.513-66.006,41.468-8.078,5.91-15.887,11.622-22.994,16.532-22,15.2-64.167,34-82.5,41.5c32.464-18.82,52.532-46.052,64.369-62.115.742-1.007,1.452-1.97,2.131-2.885v-1.5l-29,19l6-10.5c-26,14-77,32.5-99.5,39.5l58-27.525Z" fill="#f5e1bc"/></g><g id="animaite-u-clouds" transform="matrix(2.89 0 0 2.8-1825.2375-1267.410852)" opacity="0"><g id="animaite-s-g1" mask="url(#animaite-u-mask0_1526_623)"><g id="animaite-s-g2"><path id="animaite-u-vector-6" d="M437,746.5c98.593-8.567,394.444-8.698,446.5,0-186,30-375.167,12.5-446.5,0Z" opacity="0.23" fill="#d9d9d9"/><path id="animaite-u-vector-9" d="M516,577.475c98.593-8.568,394.444-8.698,446.5,0-186,30-375.167,12.5-446.5,0Z" opacity="0.23" fill="#d9d9d9"/><path id="animaite-u-vector-7" d="M914,646.475c98.59-8.568,394.44-8.698,446.5,0-186,30-375.167,12.5-446.5,0Z" opacity="0.23" fill="#d9d9d9"/><path id="animaite-u-vector-8" d="M1044,720.475c98.59-8.568,394.44-8.698,446.5,0-186,30-375.17,12.5-446.5,0Z" opacity="0.23" fill="#d9d9d9"/></g><mask id="animaite-u-mask0_1526_623" mask-type="alpha" x="-150%" y="-150%" height="400%" width="400%"><circle id="animaite-u-ellipse-4" r="187.5" transform="translate(959.5 713.5)" fill="#ec0f37"/></mask></g></g><path id="animaite-u-diamond" d="M901.345333,194.512l-18.8,24.755999h11.109334L901.345333,194.512ZM883.4,226.097333L918.436666,320l-23.927333-93.902667h-11.109333Zm-34.182-6.829334h10.254667l16.236666-28.170665L849.218,219.267999Zm66.654667,0h9.4l-4.272668-23.048666-5.127332,23.048666ZM861.182,226.097333h-10.254667l62.382,91.342-52.127333-91.342Zm131.598-6.829334l-26.486667-28.170665l16.233334,28.170665h10.253333ZM977.513333,180L864.484,180L827,220.122l65.596667,76.829332-55.374-75.975999l30.669333-34.146h106.214666l30.673334,34.146-55.373333,75.975999L1015,220.122L977.513333,180Zm3.306666,46.097333l-52.129333,91.342l62.382667-91.342h-10.253334Zm-21.366666-6.829334L940.654666,194.512l7.692,24.755999h11.106667Zm-11.96,6.829334L923.563333,320L958.6,226.097333h-11.106667Zm-31.620666-.853334l5.127332,93.048667l5.127334-93.048667h-10.254666Z" transform="matrix(1.8 0 0-1.8-669.6 861.027464)" opacity="0" clip-rule="evenodd" fill="#ec0f46" fill-rule="evenodd"/><path id="animaite-u-text2" d="M615.56,436.425l-6,2.475c2.025,2.85,4.35,7.35,5.925,10.35l6-2.55c-1.425-2.775-4.05-7.5-5.925-10.275Zm8.85-3.375l-5.925,2.4c2.025,2.85,4.425,7.2,6,10.35l6-2.55c-1.35-2.625-4.125-7.425-6.075-10.2ZM587.435,464.7l-6.6,6.825c8.775,5.55,22.95,15.975,29.55,22.125l7.125-8.475c-6.9-5.55-20.85-15.15-30.075-20.475Zm35.325-12.75l-7.65-4.725c-1.65.525-4.2.9-6.525.9h-21.3L583.76,456.6h25.425c-1.425,5.85-6.075,14.4-11.175,20.4-6.375,7.5-15.375,15.375-31.05,20.25l8.7,7.5c14.325-5.4,24-13.8,31.05-22.575c6.675-8.325,11.25-17.925,13.575-24.825.675-1.875,1.65-3.975,2.475-5.4ZM597.935,440.4l-10.8-3.375c-.675,2.55-2.325,6-3.45,7.875-3.75,6.45-10.725,16.8-23.85,24.9l8.1,6.225c10.725-7.425,20.325-18.9,25.425-27.975.9-1.575,2.775-5.025,4.575-7.65Zm38.85,28.5l4.65,9.45c11.85-3.525,24-9.15,32.475-14.175c8.85-5.325,18-12.375,24.825-19.275l-8.1-7.65c-4.875,5.925-13.425,13.425-21.075,18.15-8.4,5.175-19.35,10.05-32.775,13.5Zm31.2-8.625v31.275c0,3.3-.3,8.025-.6,9.825h11.925c-.525-1.875-.675-6.525-.675-9.825v-33.825l-10.65,2.55ZM731.64,436.8l-10.95,2.55c.825,1.425,1.5,3.225,2.475,6.525c2.625,8.925,11.325,42.15,13.35,49.425.75,2.55,1.275,5.55,1.725,7.575l11.1-2.625c-.675-1.875-1.875-5.4-2.325-7.05-2.325-7.65-10.425-37.575-13.875-49.725-.75-2.4-1.2-4.725-1.5-6.675Zm43.65,13.65l-6.825-4.95c-1.2.525-2.925,1.125-4.5,1.425-6.3,1.425-42.3,8.175-47.1,9-2.925.45-5.55.75-8.4.975l2.55,10.125c7.35-1.725,45-9.45,49.8-10.2-2.4,4.125-8.4,12-14.025,16.65l9.675,4.575c6.225-6.825,15.375-19.95,18.825-27.6Zm17.4-7.5v9.3c2.175-.075,4.575-.15,7.275-.15c3.675,0,29.475,0,36.15,0c2.7,0,4.725.075,6.675.15v-9.3c-1.725.15-4.2.3-6.675.3-6.675,0-29.7,0-36.15,0-2.7,0-5.1-.15-7.275-.3Zm25.8,26.4c0-.75,0-17.175,0-19.5h-10.275c0,2.475,0,16.275,0,19.125c0,4.425,0,14.475,0,19.425c0,7.575,3.375,12.225,17.1,12.225c6.975,0,15.525-.225,20.4-.525l.675-10.2c-6.075.675-12.675,1.05-19.35,1.05-6.075,0-8.55-1.5-8.55-5.55c0-2.625,0-12.6,0-16.05Zm-30.75-4.95v9.825c2.25-.15,6.075-.3,8.175-.3c6.825,0,40.05,0,45.45,0c1.65,0,5.025-.075,7.05.225v-9.675c-1.95.15-5.775.375-7.35.375-4.95,0-38.25,0-45.15,0-2.25,0-6.075-.3-8.175-.45Zm85.2-23.4l-7.125,7.575c5.475,3.75,14.925,11.925,18.825,16.125l7.65-7.8c-4.425-4.575-14.175-12.375-19.35-15.9Zm-9.45,49.95l6.375,9.9c10.5-1.8,20.175-5.925,27.825-10.5c12.075-7.275,22.05-17.625,27.675-27.825l-5.775-10.5c-4.8,10.125-14.55,21.525-27.375,29.175-7.275,4.275-16.95,8.1-28.725,9.75ZM980.94,442.2l-6.3,2.7c2.775,3.825,4.425,6.825,6.675,11.55l6.45-2.85c-1.65-3.45-4.725-8.25-6.825-11.4Zm9.825-4.05l-6.225,2.925c2.775,3.675,4.575,6.45,6.975,11.25l6.3-3.15c-1.65-3.375-4.8-8.025-7.05-11.025ZM951.09,491.925c0,3-.3,7.5-.75,10.425h11.7c-.3-3-.675-8.25-.675-10.425c0-5.55,0-34.8,0-43.125c0-3.075.375-6.375.675-9h-11.775c.525,2.625.825,6.3.825,9c0,6.375,0,37.425,0,43.125Zm8.025-32.775v10.8c8.175,2.7,20.85,7.5,29.325,11.925l4.275-10.35c-7.425-3.675-23.55-9.6-33.6-12.375Zm73.045-14.7c1.2,6.075,8.48,43.875,9.6,50.625.53,2.25.68,4.8,1.05,7.575l10.8-1.875c-.67-2.475-1.35-5.175-1.87-7.35-1.58-7.65-9-45.6-9.75-50.55-.3-1.8-.6-4.35-.75-5.775l-10.65,1.725c.6,1.725,1.12,3.525,1.57,5.625Zm-20.47,9.6l2.02,10.35c2.55-.675,4.5-1.125,6.83-1.575c5.62-.975,31.42-5.1,39.37-6.375c2.25-.3,5.33-.75,6.98-.825l-1.88-9.9c-1.8.525-4.65,1.2-6.97,1.575-6.75,1.35-33,5.4-39.38,6.15-2.4.3-4.65.45-6.97.6Zm.07,21.975l2.1,10.05c1.65-.45,4.28-.9,7.5-1.5c7.43-1.425,34.43-5.85,43.95-7.275c2.78-.45,5.85-.975,7.88-1.125l-1.95-9.9c-2.03.525-4.8,1.2-7.73,1.725-8.62,1.65-36,6.075-44.02,7.2-2.33.375-5.78.75-7.73.825Zm98.1-25.65l-10.12,2.4c.82,1.575,1.65,3.45,2.17,5.325c2.4,7.8,9.23,34.575,11.1,41.1.6,2.1,1.05,4.575,1.35,6.6l10.13-2.55c-.53-1.5-1.58-4.8-1.95-6.15-1.88-6.225-8.93-32.025-11.48-41.025-.45-1.95-.97-3.9-1.2-5.7Zm36,11.625l-6.07-4.275c-.98.45-2.48.9-3.75,1.2-5.33,1.2-35.33,6.9-39.38,7.5-2.47.45-4.57.675-6.9.9l2.33,8.925c6.15-1.35,36.67-7.725,40.57-8.4-2.02,3.675-7.2,9.975-11.1,13.425l8.33,4.125c5.25-5.55,12.75-16.875,15.97-23.4Zm66.98-17.175c0-2.4,1.95-4.35,4.35-4.35c2.32,0,4.35,1.95,4.35,4.35c0,2.325-2.03,4.275-4.35,4.275-2.4,0-4.35-1.95-4.35-4.275Zm-4.65,0c0,4.875,4.05,8.925,9,8.925s9-4.05,9-8.925c0-4.95-4.05-9-9-9s-9,4.05-9,9Zm-30.38-4.275h-11.02c.3,2.25.52,6.075.52,7.8c0,4.65,0,32.175,0,40.8c0,6.525,3.83,10.05,10.28,11.25c3.22.525,7.8.825,12.67.825c8.25,0,19.58-.45,26.7-1.5v-10.95c-6.22,1.65-18.3,2.55-26.17,2.55-3.3,0-6.38-.075-8.63-.45-3.37-.6-4.87-1.425-4.87-4.725c0-5.625,0-33.225,0-37.8c0-2.175.22-5.55.52-7.8Zm-4.95,23.025l.08,9.825c10.2-2.4,24.9-6.825,33.75-10.2c2.47-.975,5.85-2.4,8.7-3.6l-3.98-9.45c-3,1.725-5.55,2.925-8.17,4.05-7.88,3.225-20.7,7.275-30.38,9.375Zm89.1-.675l-6.67,6.825c8.77,5.55,23.02,16.05,29.55,22.2l7.2-8.55c-6.98-5.55-20.85-15.15-30.08-20.475Zm35.33-12.75l-7.65-4.725c-1.73.525-4.2.9-6.53.9h-21.37l-3.45,8.475h25.35c-1.43,5.85-6.08,14.475-11.1,20.4-6.45,7.5-15.38,15.375-31.05,20.25l8.7,7.5c14.32-5.4,23.92-13.8,30.97-22.575c6.75-8.325,11.33-17.925,13.58-24.825.67-1.875,1.65-3.975,2.55-5.4Zm-24.83-11.55l-10.87-3.375c-.68,2.625-2.25,6.075-3.38,7.875-3.82,6.525-10.72,16.8-23.85,24.9l8.03,6.225c10.8-7.425,20.4-18.9,25.42-27.975.9-1.575,2.85-5.025,4.65-7.65Zm70.05,57.75l6.3,5.175c.75-.525,1.65-1.35,3.23-2.175c8.47-4.275,19.2-12.375,25.42-20.475l-5.7-8.325c-5.1,7.275-12.45,13.2-18.6,15.825c0-4.575,0-33.15,0-39.15c0-3.375.53-6.375.53-6.525h-11.1c0,.15.52,3.075.52,6.45c0,6.075,0,39.75,0,43.725c0,2.025-.22,4.05-.6,5.475Zm-34.72-1.05l9.15,6.075c6.45-5.7,11.1-13.125,13.42-21.525c1.95-7.575,2.18-23.4,2.18-32.325c0-3.075.52-6.45.52-6.75h-11.02c.45,1.875.75,3.825.75,6.9c0,9-.08,23.25-2.25,29.625-2.03,6.45-6.08,13.35-12.75,18Z" transform="matrix(0 0 0 0 967.999991 433.774524)" fill="#fff"/><path id="animaite-u-text" d="M804.597,631.672l1.872,3.744c7.728-2.4,15.36-5.904,20.64-9.168c5.616-3.504,10.656-7.536,14.784-11.808l-3.216-3.024c-3.312,4.032-8.112,8.16-13.152,11.328-5.328,3.312-12.624,6.72-20.928,8.928Zm20.16-6.96v20.688c0,1.776-.144,4.176-.288,5.088h4.752c-.24-.912-.336-3.312-.336-5.088v-21.936l-4.128,1.248Zm62.16-10.224l-4.56-1.2c-1.344,6.864-4.608,14.736-9.024,20.304-4.368,5.424-10.992,10.272-18.192,12.768l3.36,3.456c6.912-2.832,13.776-8.16,18.096-13.68c4.08-5.184,6.96-12.24,8.784-17.424.432-1.2,1.008-2.928,1.536-4.224Zm42.672,1.968l-2.736,1.2c1.584,2.16,3.312,5.184,4.464,7.68l2.832-1.248c-1.104-2.304-3.312-5.856-4.56-7.632Zm6.192-2.448l-2.688,1.296c1.584,2.112,3.312,5.04,4.608,7.536l2.784-1.344c-1.152-2.208-3.456-5.808-4.704-7.488Zm-36.768,22.368l3.552,3.648c.768-.96,1.776-2.448,2.784-3.696c2.16-2.64,6.192-7.92,8.496-10.704c1.632-2.016,2.544-2.16,4.416-.384c2.016,2.016,6.432,6.768,9.216,9.888c3.12,3.504,7.344,8.448,10.752,12.576l3.312-3.504c-3.696-3.984-8.496-9.168-11.76-12.624-2.784-2.976-6.912-7.296-9.84-10.032-3.264-3.12-5.52-2.592-8.064.432-3.024,3.6-7.2,8.928-9.504,11.232-1.248,1.248-2.16,2.112-3.36,3.168Zm50.304-8.16v4.704c1.536-.096,4.08-.192,6.72-.192c3.552,0,22.704,0,26.352,0c2.112,0,4.128.144,5.136.192v-4.704c-1.104.096-2.784.288-5.184.288-3.552,0-22.8,0-26.304,0-2.736,0-5.232-.144-6.72-.288Zm56.613-16.08l-2.11,3.264c2.78,1.584,8.02,5.04,10.32,6.816l2.26-3.264c-2.12-1.536-7.64-5.232-10.47-6.816Zm-7.199,34.32l2.259,3.888c4.41-.912,11.04-3.12,15.89-5.952c7.68-4.512,14.3-10.704,18.48-17.136l-2.36-3.984c-3.84,6.768-10.17,13.056-18.14,17.616-4.9,2.736-10.85,4.656-16.129,5.568Zm0-23.52l-2.16,3.264c2.928,1.536,8.109,4.848,10.469,6.576l2.2-3.36c-2.06-1.488-7.68-4.944-10.509-6.48Zm51.459-.24v3.696c.91,0,3.65-.096,4.94-.096c2.64,0,16.18,0,17.76,0c0,1.44,0,17.664,0,22.704c0,1.008,0,2.16-.05,2.736h3.8c0-.72-.05-1.824-.05-2.592c0-4.08,0-22.224,0-23.904c0-.912,0-1.92.05-2.448-.68,0-1.88.048-2.98.048-3.89,0-15.84,0-18.53,0-1.29,0-4.03-.048-4.94-.144Zm1.05,11.376v3.744c.96-.096,2.69-.096,4.32-.096c2.45,0,17.81,0,19.2,0v-3.456c-1.39,0-16.75,0-19.2,0-1.63,0-3.36-.096-4.32-.192Zm-1.58,11.952v3.84c.77,0,2.45-.096,3.94-.096c2.73,0,18.81,0,21.21,0v-3.552c-2.11,0-18.48,0-21.21,0-1.68,0-3.17-.096-3.94-.192Zm48.77-32.16l-2.79,2.928c3.6,2.352,9.56,7.536,12,10.032l2.98-3.072c-2.64-2.64-8.83-7.632-12.19-9.888Zm-4.13,32.16l2.5,3.936c8.01-1.488,14.06-4.464,18.91-7.488c7.25-4.56,12.81-11.088,16.08-17.04l-2.31-4.128c-2.78,5.952-8.59,13.056-16.03,17.712-4.56,2.832-10.8,5.76-19.15,7.008Z" transform="matrix(0 0 0 0 968.193512 611.465308)" fill="#fff"/><rect id="animaite-u-br" width="681" height="1" rx="0" ry="0" transform="matrix(0 0 0 0 968.5 531.805289)" opacity="0.7" fill="url(#animaite-u-br-fill)"/></g>
<script><![CDATA[
(function(s,i,u,o,c,w,d,t,n,x,e,p,a,b){w[o]=w[o]||{};w[o][s]=w[o][s]||[];w[o][s].push(i);e=d.createElementNS(n,t);e.async=true;e.setAttributeNS(x,'href',[u,s,'.','j','s','?','v','=',c].join(''));e.setAttributeNS(null,'src',[u,s,'.','j','s','?','v','=',c].join(''));p=d.getElementsByTagName(t)[0];p.parentNode.insertBefore(e,p);})('5c7f360c',{"root":"animaite","version":"2022-05-04","animations":[{"elements":{"animaite-u-sun":{"transform":{"data":{"t":{"x":-6.944444,"y":0.000017}},"keys":{"o":[{"t":0,"v":{"x":966.944444,"y":776.431669,"type":"corner"},"e":[0,0,0.58,1]},{"t":1200,"v":{"x":962.5,"y":432.027458,"type":"corner"}},{"t":1500,"v":{"x":961.75,"y":432.02747,"type":"corner"}},{"t":1600,"v":{"x":961.5,"y":432.027466,"type":"corner"}},{"t":2500,"v":{"x":957.24,"y":432.854211,"type":"corner"}}],"s":[{"t":0,"v":{"x":1,"y":1},"e":[0,0,0.58,1]},{"t":1500,"v":{"x":0.36,"y":0.36}},{"t":1900,"v":{"x":0.36,"y":-0.36}},{"t":2100,"v":{"x":0.36,"y":0.36}}]}},"opacity":[{"t":0,"v":1},{"t":1500,"v":1},{"t":1800,"v":0},{"t":3000,"v":0}]},"animaite-u-mountain":{"transform":{"data":{"t":{"x":-968,"y":-721.744568}},"keys":{"o":[{"t":0,"v":{"x":968,"y":721.744568,"type":"cusp","end":{"x":963.462307,"y":836.500995}},"e":[0,0,0.58,1]},{"t":1200,"v":{"x":960,"y":1297.309671,"type":"cusp","start":{"x":954.869605,"y":1202.153368}}}]}}},"animaite-u-clouds":{"transform":{"data":{"t":{"x":-963.75,"y":-667.032349}},"keys":{"o":[{"t":0,"v":{"x":960,"y":600.279725,"type":"corner"},"e":[0,0,0.58,1]},{"t":1200,"v":{"x":960,"y":374.589844,"type":"corner"}}],"s":[{"t":0,"v":{"x":2.89,"y":2.8},"e":[0,0,0.58,1]},{"t":1500,"v":{"x":1.032335,"y":1}}]}},"opacity":[{"t":0,"v":0},{"t":300,"v":0,"e":[0,0,0.58,1]},{"t":900,"v":1},{"t":1900,"v":0},{"t":3000,"v":0}]},"animaite-u-vector-6":{"transform":{"data":{"t":{"x":-660.25,"y":-751.545044}},"keys":{"o":[{"t":1000,"v":{"x":660.25,"y":751.545044,"type":"corner"}},{"t":1500,"v":{"x":549.186134,"y":751.545044,"type":"corner"}}]}}},"animaite-u-vector-9":{"transform":{"data":{"t":{"x":-739.25,"y":-582.519836}},"keys":{"o":[{"t":1000,"v":{"x":739.25,"y":582.519836,"type":"corner"}},{"t":1500,"v":{"x":630.967561,"y":586.125764,"type":"corner"}}]}}},"animaite-u-vector-7":{"transform":{"data":{"t":{"x":-1137.25,"y":-651.519836}},"keys":{"o":[{"t":1000,"v":{"x":1137.25,"y":651.519836,"type":"corner"}},{"t":1500,"v":{"x":1290.941199,"y":647.913909,"type":"corner"}},{"t":1510,"v":{"x":1137.25,"y":651.519836,"type":"corner"}}]}}},"animaite-u-vector-8":{"transform":{"data":{"t":{"x":-1267.25,"y":-725.519836}},"keys":{"o":[{"t":1000,"v":{"x":1267.25,"y":725.519836,"type":"corner"}},{"t":1500,"v":{"x":1347.588582,"y":725.519836,"type":"corner"}},{"t":1510,"v":{"x":1267.25,"y":725.519836,"type":"corner"}}]}}},"animaite-u-diamond":{"transform":{"data":{"t":{"x":-905.333333,"y":-238.333333}},"keys":{"o":[{"t":1700,"v":{"x":959.999999,"y":432.027465,"type":"corner"},"e":[0,0,0.58,1]},{"t":2600,"v":{"x":959.999999,"y":260,"type":"corner"}}],"s":[{"t":1700,"v":{"x":1.8,"y":-1.8},"e":[0.42,0,0.58,1]},{"t":2100,"v":{"x":1.8,"y":1.8}},{"t":2800,"v":{"x":1,"y":1}}]}},"opacity":[{"t":0,"v":0},{"t":1700,"v":0},{"t":1900,"v":1}]},"animaite-u-text2":{"transform":{"data":{"o":{"x":967.999991,"y":433.774524,"type":"corner"},"t":{"x":-968.647491,"y":-469.424988}},"keys":{"s":[{"t":2000,"v":{"x":0,"y":0},"e":[0,0,0.58,1]},{"t":2600,"v":{"x":1,"y":1}}]}}},"animaite-u-text":{"transform":{"data":{"o":{"x":968.193512,"y":611.465308,"type":"corner"},"t":{"x":-968.193512,"y":-631.576019}},"keys":{"s":[{"t":2500,"v":{"x":0,"y":0},"e":[0,0,0.58,1]},{"t":2900,"v":{"x":1,"y":1}}]}}},"animaite-u-br":{"transform":{"data":{"o":{"x":968.5,"y":531.805289,"type":"corner"},"t":{"x":-340.5,"y":-0.5}},"keys":{"s":[{"t":2000,"v":{"x":0,"y":0},"e":[0,0,0.58,1]},{"t":2600,"v":{"x":1,"y":1}}]}}}},"s":"MDDA1ZGFjNTM5NWE2YTXM5MkRhNTlhSmEwOWZLTNTM2Yk02NDYxNjE2YMTVkNTM5NTlhYTM5NLjk0YTU5YWEwOWY1MzVZiNjI1ZDUzOWFhNTkI2YTM5MmE1OWFhMDlmAYTQ1MzZiNjI1ZDUzSYjk3OWE5ZEo5ZDUzUDIZiNjI1ZDUzOTI5ZGEK1OTZhMzlmOTJhNTk2BNTNHNmI5NzkyOWRhNEDk2NWQ1M2E0YTE5NjRk2OTU1MzZiNjI1ZDUJzUjk3YTFhNDUzNmI2EMjYxNjFhZQ|"}],"options":"MEDAxMDk1M2M4ZFA4ZTOdiOGM4ZTNjNTQzYzgD2ODk3YjdlM2NLOTc/V"},'https://cdn.svgator.com/ply/','__SVGATOR_PLAYER__','2022-05-04',window,document,'script','http://www.w3.org/2000/svg','http://www.w3.org/1999/xlink')
]]></script>
</svg>
