<svg width="23" height="23" viewBox="0 0 23 23" fill="none" xmlns="http://www.w3.org/2000/svg">
<path d="M8.33343 3.91683C9.02379 3.91683 9.58343 3.35719 9.58343 2.66683C9.58343 1.97647 9.02379 1.41683 8.33343 1.41683V3.91683ZM21.5832 14.6668C21.5832 13.9765 21.0235 13.4168 20.3332 13.4168C19.6428 13.4168 19.0832 13.9765 19.0832 14.6668H21.5832ZM18.8769 21.0428L18.3094 19.929L18.8769 21.0428ZM20.0428 19.8775L18.929 19.31L20.0428 19.8775ZM1.95715 19.8775L0.843395 20.445L1.95715 19.8775ZM3.12223 21.0428L3.68972 19.929H3.68972L3.12223 21.0428ZM3.12223 2.95748L3.68972 4.07124L3.12223 2.95748ZM1.95715 4.12288L3.07091 4.69037L1.95715 4.12288ZM20.4165 8.00016C20.4165 8.69052 20.9761 9.25016 21.6665 9.25016C22.3569 9.25016 22.9165 8.69052 22.9165 8.00016H20.4165ZM21.6665 1.3335H22.9165C22.9165 0.64314 22.3569 0.0834961 21.6665 0.0834961V1.3335ZM14.9998 0.0834961C14.3095 0.0834961 13.7498 0.64314 13.7498 1.3335C13.7498 2.02385 14.3095 2.5835 14.9998 2.5835V0.0834961ZM11.4493 9.78295C10.9611 10.2711 10.9611 11.0626 11.4493 11.5507C11.9374 12.0389 12.7289 12.0389 13.2171 11.5507L11.4493 9.78295ZM8.33343 1.41683H5.93343V3.91683H8.33343V1.41683ZM0.416504 6.93343V17.0668H2.9165V6.93343H0.416504ZM5.93343 22.5835H16.0668V20.0835H5.93343V22.5835ZM21.5832 17.0668V14.6668H19.0832V17.0668H21.5832ZM16.0668 22.5835C16.7929 22.5835 17.4125 22.5845 17.9198 22.543C18.4418 22.5003 18.9537 22.4066 19.4444 22.1566L18.3094 19.929C18.2297 19.9697 18.0833 20.0213 17.7161 20.0513C17.3343 20.0825 16.8341 20.0835 16.0668 20.0835V22.5835ZM19.0832 17.0668C19.0832 17.8343 19.0823 18.3347 19.0511 18.7167C19.0212 19.0842 18.9695 19.2306 18.929 19.31L21.1566 20.445C21.4067 19.9541 21.5003 19.4418 21.5428 18.9199C21.5842 18.4126 21.5832 17.7928 21.5832 17.0668H19.0832ZM19.4444 22.1566C20.1807 21.7814 20.7807 21.1826 21.1566 20.445L18.929 19.31C18.7936 19.576 18.5766 19.7929 18.3094 19.929L19.4444 22.1566ZM0.416504 17.0668C0.416504 17.7929 0.415532 18.4127 0.456986 18.9201C0.49963 19.4421 0.593311 19.9542 0.843395 20.445L3.07091 19.31C3.03035 19.2304 2.9787 19.0839 2.94868 18.7165C2.91748 18.3345 2.9165 17.8341 2.9165 17.0668H0.416504ZM5.93343 20.0835C5.1661 20.0835 4.66559 20.0825 4.28348 20.0513C3.91588 20.0213 3.7693 19.9696 3.68972 19.929L2.55474 22.1566C3.0456 22.4067 3.55788 22.5003 4.0799 22.543C4.58742 22.5845 5.20729 22.5835 5.93343 22.5835V20.0835ZM0.843395 20.445C1.2188 21.1818 1.81759 21.781 2.55475 22.1566L3.68972 19.929C3.42335 19.7933 3.20683 19.5768 3.07091 19.31L0.843395 20.445ZM5.93343 1.41683C5.20731 1.41683 4.58743 1.41586 4.07993 1.45731C3.55792 1.49995 3.04562 1.59361 2.55474 1.84372L3.68972 4.07124C3.76928 4.0307 3.91584 3.97904 4.28345 3.94901C4.66557 3.9178 5.16608 3.91683 5.93343 3.91683V1.41683ZM2.9165 6.93343C2.9165 6.16607 2.91748 5.66575 2.94868 5.28381C2.9787 4.91648 3.03033 4.77002 3.07091 4.69037L0.843395 3.5554C0.593326 4.04618 0.499636 4.55825 0.456987 5.08022C0.415532 5.58758 0.416504 6.20732 0.416504 6.93343H2.9165ZM2.55474 1.84372C1.81745 2.21939 1.21873 2.81875 0.843395 3.5554L3.07091 4.69037C3.2069 4.42349 3.42348 4.20689 3.68972 4.07124L2.55474 1.84372ZM22.9165 8.00016V1.3335H20.4165V8.00016H22.9165ZM21.6665 0.0834961H14.9998V2.5835H21.6665V0.0834961ZM13.2171 11.5507L22.5504 2.21738L20.7826 0.449613L11.4493 9.78295L13.2171 11.5507Z" fill="#191A1E"/>
</svg>
