<svg width="234" height="45" viewBox="0 0 234 45" fill="none" xmlns="http://www.w3.org/2000/svg">
<path fill-rule="evenodd" clip-rule="evenodd" d="M23.872 4.66463L17.8354 12.622H21.4024L23.872 4.66463ZM18.1098 14.8171L29.3598 45L21.6768 14.8171H18.1098ZM7.13415 12.622H10.4268L15.6402 3.56707L7.13415 12.622ZM28.5366 12.622H31.5549L30.1829 5.21341L28.5366 12.622ZM10.9756 14.8171H7.68293L27.7134 44.1768L10.9756 14.8171ZM53.2317 12.622L44.7256 3.56707L49.939 12.622H53.2317ZM48.33 0H12.0358L0 12.8963L21.0627 37.5915L3.28253 13.1707L13.1301 2.19512H47.2357L57.0833 13.1707L39.3031 37.5915L60.3658 12.8963L48.33 0ZM49.3902 14.8171L32.6524 44.1768L52.6829 14.8171H49.3902ZM42.5305 12.622L36.4939 4.66463L38.9634 12.622H42.5305ZM38.689 14.8171L31.0061 45L42.2561 14.8171H38.689ZM28.5366 14.5427L30.1829 44.4512L31.8293 14.5427H28.5366Z" fill="currentColor"/>
<path fill-rule="evenodd" clip-rule="evenodd" d="M203 10.0159C203 5.04607 199.453 1.3823 193.705 1.3823H186.118V18.5538H193.705C199.617 18.5538 203 14.9539 203 10.0159ZM188.318 3.3577H193.705C198.106 3.3577 200.734 6.12928 200.734 9.98408C200.734 13.8389 198.27 16.5786 193.705 16.5786H188.318V3.3577ZM152.905 19C158.193 19 162.101 15.2407 162.101 10.0159C162.101 4.79113 158.193 1 152.905 1C147.617 1 143.741 4.79113 143.741 10.0159C143.741 15.2407 147.617 19 152.905 19ZM152.905 3.00724C156.879 3.00724 159.802 5.93826 159.802 10.0159C159.802 14.062 156.879 16.9928 152.905 16.9928C148.964 16.9928 146.008 14.0936 146.008 10.0159C146.007 5.93802 148.964 3.00724 152.905 3.00724ZM123.735 5.14159L130.764 15.3044L137.792 5.14159V18.5538H139.96V1.3823H137.957L130.764 11.8956L123.604 1.3823H121.567V18.5538H123.735L123.735 5.14159ZM168.181 5.71515L179.71 18.554H180.826V1.38254H178.626V14.2214L167.13 1.38254H165.981V18.554H168.181V5.71515ZM97.0275 1.28678H94.794V18.6177H97.0275V1.28678ZM90.8822 10.0159C90.8822 5.04607 87.3349 1.3823 81.587 1.3823H74V18.5538H81.587C87.4991 18.5538 90.8822 14.9539 90.8822 10.0159ZM76.2007 3.3577H81.5873C85.9884 3.3577 88.6161 6.12928 88.6161 9.98408C88.6161 13.8389 86.1528 16.5786 81.5873 16.5786H76.2007V3.3577ZM104.386 13.9344H114.174L116.571 18.5538H118.969L110.2 1.3823H108.36L99.6893 18.5538H102.054L104.386 13.9344ZM109.28 4.31332L113.189 11.9274H105.404L109.28 4.31332Z" fill="currentColor"/>
<path fill-rule="evenodd" clip-rule="evenodd" d="M164.541 34.0351H172.759C176.066 34.0351 177.998 31.9005 177.998 29.0332C177.998 26.166 175.935 24.3818 172.465 24.3818H162.347V41.554H164.541L164.541 34.0351ZM164.541 26.3571H172.432C174.56 26.3571 175.706 27.4403 175.706 29.2243C175.706 31.0403 174.56 32.0278 172.333 32.0278H164.54L164.541 26.3571ZM234 39.5785H222.474V24.3816H220.28V41.5538H234V39.5785ZM200.729 41.5538L203.054 36.9342H212.811L215.202 41.5538H217.592L208.85 24.3816H207.016L198.371 41.5538H200.729ZM207.933 27.3127L211.829 34.9271H204.069L207.933 27.3127ZM183.896 24.2861H181.669V41.6177H183.896V24.2861ZM145.219 36.9342H154.976L157.367 41.5538H159.757L151.014 24.3816H149.181L140.536 41.5538H142.894L145.219 36.9342ZM150.098 27.3127L153.994 34.9271H146.234L150.098 27.3127ZM192.279 41.5538H194.473V26.3568H201.906V24.3816H184.846V26.3568H192.279V41.5538ZM131.135 42C134.704 42 137.619 40.3434 139.256 37.3486L137.488 36.0743C136.08 38.655 133.886 39.9929 131.135 39.9929C127.206 39.9929 124.259 37.0936 124.259 33.0158C124.259 28.9377 127.206 26.0068 131.135 26.0068C133.69 26.0068 135.916 27.2174 137.029 29.2884L138.863 28.0142C137.193 25.4653 134.41 24 131.135 24C125.864 24 122 27.7913 122 33.0163C122 38.2406 125.864 42 131.135 42Z" fill="currentColor"/>
</svg>
