<svg width="27" height="20" viewBox="0 0 27 20" fill="none" xmlns="http://www.w3.org/2000/svg">
<path fill-rule="evenodd" clip-rule="evenodd" d="M10.6098 2.07317L7.92683 5.60976H9.51219L10.6098 2.07317ZM8.04878 6.58537L13.0488 20L9.63415 6.58537H8.04878ZM3.17073 5.60976H4.63415L6.95122 1.58537L3.17073 5.60976ZM12.6829 5.60976H14.0244L13.4146 2.31707L12.6829 5.60976ZM4.87805 6.58537H3.41463L12.3171 19.6341L4.87805 6.58537ZM23.6585 5.60976L19.878 1.58537L22.1951 5.60976H23.6585ZM21.48 0H5.34927L0 5.73171L9.36122 16.7073L1.4589 5.85366L5.83561 0.97561H20.9937L25.3704 5.85366L17.468 16.7073L26.8293 5.73171L21.48 0ZM21.9512 6.58537L14.5122 19.6341L23.4146 6.58537H21.9512ZM18.9024 5.60976L16.2195 2.07317L17.3171 5.60976H18.9024ZM17.1951 6.58537L13.7805 20L18.7805 6.58537H17.1951ZM12.6829 6.46341L13.4146 19.7561L14.1463 6.46341H12.6829Z" fill="#EC0F46"/>
</svg>
