<svg width="40" height="594" viewBox="0 0 40 594" fill="none" xmlns="http://www.w3.org/2000/svg">
<path d="M30.881 9.981C31.856 11.424 33.221 13.881 33.962 15.324L30.842 16.65C30.023 15.09 28.814 12.75 27.761 11.268L30.881 9.981ZM35.483 8.226C36.497 9.669 37.94 12.165 38.642 13.53L35.522 14.856C34.703 13.218 33.455 10.956 32.402 9.474L35.483 8.226ZM16.256 24.684C21.053 27.453 28.307 32.445 31.895 35.331L28.19 39.738C24.758 36.54 17.387 31.119 12.824 28.233L16.256 24.684ZM34.625 18.054C34.196 18.795 33.689 19.887 33.338 20.862C32.129 24.45 29.75 29.442 26.279 33.771C22.613 38.334 17.582 42.702 10.133 45.51L5.609 41.61C13.76 39.075 18.44 34.98 21.755 31.08C24.407 27.96 26.825 23.514 27.566 20.472H14.345L16.178 16.065H27.254C28.463 16.065 29.789 15.87 30.647 15.597L34.625 18.054ZM21.716 12.048C20.78 13.413 19.805 15.207 19.337 16.026C16.685 20.745 11.693 26.712 6.116 30.573L1.904 27.336C8.729 23.124 12.356 17.742 14.306 14.388C14.891 13.413 15.749 11.619 16.1 10.293L21.716 12.048ZM2.918 80.868C9.899 79.074 15.593 76.539 19.961 73.848C23.939 71.391 28.385 67.491 30.92 64.41L35.132 68.388C31.583 71.976 26.825 75.642 22.223 78.411C17.816 81.024 11.498 83.949 5.336 85.782L2.918 80.868ZM19.142 76.383L24.68 75.057V92.646C24.68 94.362 24.758 96.78 25.031 97.755H18.83C18.986 96.819 19.142 94.362 19.142 92.646V76.383ZM14.423 118.176C14.579 119.19 14.813 120.399 15.203 121.647C16.997 127.965 21.209 143.526 22.418 147.504C22.652 148.362 23.276 150.195 23.627 151.17L17.855 152.535C17.621 151.482 17.348 149.922 16.958 148.596C15.905 144.813 11.381 127.536 10.016 122.895C9.509 121.179 9.158 120.243 8.729 119.502L14.423 118.176ZM37.121 125.274C35.327 129.252 30.569 136.077 27.332 139.626L22.301 137.247C25.226 134.829 28.346 130.734 29.594 128.589C27.098 128.979 7.52 132.996 3.698 133.893L2.372 128.628C3.854 128.511 5.219 128.355 6.74 128.121C9.236 127.692 27.956 124.182 31.232 123.441C32.051 123.285 32.948 122.973 33.572 122.7L37.121 125.274ZM7.169 175.374C8.3 175.452 9.548 175.53 10.952 175.53C14.306 175.53 26.279 175.53 29.75 175.53C31.037 175.53 32.324 175.452 33.221 175.374V180.21C32.207 180.171 31.154 180.132 29.75 180.132C26.279 180.132 12.863 180.132 10.952 180.132C9.548 180.132 8.3 180.171 7.169 180.21V175.374ZM20.585 189.102C20.585 190.896 20.585 196.083 20.585 197.448C20.585 199.554 21.872 200.334 25.031 200.334C28.502 200.334 31.934 200.139 35.093 199.788L34.742 205.092C32.207 205.248 27.761 205.365 24.134 205.365C16.997 205.365 15.242 202.947 15.242 199.008C15.242 196.434 15.242 191.208 15.242 188.907C15.242 187.425 15.242 180.249 15.242 178.962H20.585C20.585 180.171 20.585 188.712 20.585 189.102ZM4.595 186.528C5.687 186.606 7.676 186.762 8.846 186.762C12.434 186.762 29.75 186.762 32.324 186.762C33.143 186.762 35.132 186.645 36.146 186.567V191.598C35.093 191.442 33.338 191.481 32.48 191.481C29.672 191.481 12.395 191.481 8.846 191.481C7.754 191.481 5.765 191.559 4.595 191.637V186.528ZM9.899 228.36C12.59 230.193 17.66 234.249 19.961 236.628L15.983 240.684C13.955 238.5 9.041 234.249 6.194 232.299L9.899 228.36ZM4.985 254.334C11.108 253.476 16.139 251.487 19.922 249.264C26.591 245.286 31.661 239.358 34.157 234.093L37.16 239.553C34.235 244.857 29.048 250.239 22.769 254.022C18.791 256.401 13.76 258.546 8.3 259.482L4.985 254.334ZM27.059 282.984C28.151 284.622 29.75 287.118 30.608 288.912L27.254 290.394C26.084 287.937 25.226 286.377 23.783 284.388L27.059 282.984ZM32.168 280.878C33.338 282.438 34.976 284.856 35.834 286.611L32.558 288.249C31.31 285.753 30.374 284.31 28.931 282.399L32.168 280.878ZM11.537 308.841C11.537 305.877 11.537 289.731 11.537 286.416C11.537 285.012 11.381 283.101 11.108 281.736H17.231C17.075 283.101 16.88 284.817 16.88 286.416C16.88 290.745 16.88 305.955 16.88 308.841C16.88 309.972 17.075 312.702 17.231 314.262H11.147C11.381 312.741 11.537 310.401 11.537 308.841ZM15.71 291.798C20.936 293.241 29.321 296.322 33.182 298.233L30.959 303.615C26.552 301.314 19.961 298.818 15.71 297.414V291.798ZM14.696 338.154C14.462 337.062 14.189 336.126 13.877 335.229L19.415 334.332C19.493 335.073 19.649 336.399 19.805 337.335C20.195 339.909 24.056 359.643 24.875 363.621C25.148 364.752 25.499 366.156 25.85 367.443L20.234 368.418C20.039 366.975 19.961 365.649 19.688 364.479C19.103 360.969 15.32 341.313 14.696 338.154ZM4.049 343.146C5.258 343.068 6.428 342.99 7.676 342.834C10.991 342.444 24.641 340.338 28.151 339.636C29.36 339.441 30.842 339.09 31.778 338.817L32.753 343.965C31.895 344.004 30.296 344.238 29.126 344.394C24.992 345.057 11.576 347.202 8.651 347.709C7.442 347.943 6.428 348.177 5.102 348.528L4.049 343.146ZM4.088 354.573C5.102 354.534 6.896 354.339 8.105 354.144C12.278 353.559 26.513 351.258 30.998 350.4C32.519 350.127 33.962 349.776 35.015 349.503L36.029 354.651C34.976 354.729 33.377 355.002 31.934 355.236C26.981 355.977 12.941 358.278 9.08 359.019C7.403 359.331 6.038 359.565 5.18 359.799L4.088 354.573ZM16.1 395.235C16.217 396.171 16.49 397.185 16.724 398.199C18.05 402.879 21.716 416.295 22.691 419.532C22.886 420.234 23.432 421.95 23.705 422.73L18.44 424.056C18.284 423.003 18.05 421.716 17.738 420.624C16.763 417.231 13.214 403.308 11.966 399.252C11.693 398.277 11.264 397.302 10.835 396.483L16.1 395.235ZM34.82 401.28C33.143 404.673 29.243 410.562 26.513 413.448L22.184 411.303C24.212 409.509 26.903 406.233 27.956 404.322C25.928 404.673 10.055 407.988 6.857 408.69L5.648 404.049C6.857 403.932 7.949 403.815 9.236 403.581C11.342 403.269 26.942 400.305 29.711 399.681C30.374 399.525 31.154 399.291 31.661 399.057L34.82 401.28ZM30.647 446.349C30.647 447.558 31.661 448.572 32.909 448.572C34.118 448.572 35.171 447.558 35.171 446.349C35.171 445.101 34.118 444.087 32.909 444.087C31.661 444.087 30.647 445.101 30.647 446.349ZM28.229 446.349C28.229 443.775 30.335 441.669 32.909 441.669C35.483 441.669 37.589 443.775 37.589 446.349C37.589 448.884 35.483 450.99 32.909 450.99C30.335 450.99 28.229 448.884 28.229 446.349ZM12.434 444.126C12.278 445.296 12.161 447.051 12.161 448.182C12.161 450.561 12.161 464.913 12.161 467.838C12.161 469.554 12.941 469.983 14.696 470.295C15.866 470.49 17.465 470.529 19.181 470.529C23.276 470.529 29.555 470.061 32.792 469.203V474.897C29.087 475.443 23.198 475.677 18.908 475.677C16.373 475.677 13.994 475.521 12.317 475.248C8.963 474.624 6.974 472.791 6.974 469.398C6.974 464.913 6.974 450.6 6.974 448.182C6.974 447.285 6.857 445.296 6.701 444.126H12.434ZM9.86 456.099C14.891 455.007 21.56 452.901 25.655 451.224C27.02 450.639 28.346 450.015 29.906 449.118L31.973 454.032C30.491 454.656 28.736 455.397 27.449 455.904C22.847 457.659 15.203 459.96 9.899 461.208L9.86 456.099ZM17.192 509.748C21.989 512.517 29.204 517.509 32.831 520.395L29.087 524.841C25.694 521.643 18.284 516.183 13.721 513.297L17.192 509.748ZM35.561 503.118C35.093 503.859 34.586 504.951 34.235 505.926C33.065 509.514 30.686 514.506 27.176 518.835C23.51 523.398 18.518 527.766 11.069 530.574L6.545 526.674C14.696 524.139 19.337 520.044 22.691 516.144C25.304 513.063 27.722 508.578 28.463 505.536H15.281L17.075 501.129H28.19C29.399 501.129 30.686 500.934 31.583 500.661L35.561 503.118ZM22.652 497.112C21.716 498.477 20.702 500.271 20.234 501.09C17.621 505.809 12.629 511.776 7.013 515.637L2.84 512.4C9.665 508.188 13.253 502.845 15.242 499.452C15.827 498.516 16.646 496.722 16.997 495.357L22.652 497.112ZM20.078 581.142C20.273 580.401 20.39 579.348 20.39 578.295C20.39 576.228 20.39 558.717 20.39 555.558C20.39 553.803 20.117 552.282 20.117 552.204H25.889C25.889 552.282 25.616 553.842 25.616 555.597C25.616 558.717 25.616 573.576 25.616 575.955C28.814 574.59 32.636 571.509 35.288 567.726L38.252 572.055C35.015 576.267 29.438 580.479 25.031 582.702C24.212 583.131 23.744 583.56 23.354 583.833L20.078 581.142ZM2.021 580.596C5.492 578.178 7.598 574.59 8.651 571.236C9.782 567.921 9.821 560.511 9.821 555.831C9.821 554.232 9.665 553.218 9.431 552.243H15.164C15.164 552.399 14.891 554.154 14.891 555.753C14.891 560.394 14.774 568.623 13.76 572.562C12.551 576.93 10.133 580.791 6.779 583.755L2.021 580.596Z" fill="white"/>
</svg>
