<svg width="88" height="134" viewBox="0 0 88 134" fill="none" xmlns="http://www.w3.org/2000/svg">
<path d="M42.285 11.212V16.21C42.285 19.493 41.648 23.315 36.797 26.157C37.875 26.941 39.982 29.293 40.668 30.42C46.499 26.843 47.773 21.11 47.773 16.357V11.212H42.285ZM45.029 11.212V16.651H56.887V11.212H45.029ZM54.094 11.212V21.943C54.094 26.794 55.27 28.215 59.337 28.215C60.121 28.215 61.591 28.215 62.473 28.215C65.805 28.215 67.128 26.549 67.618 20.522C66.148 20.13 63.845 19.297 62.767 18.415C62.669 22.678 62.522 23.364 61.836 23.364C61.542 23.364 60.66 23.364 60.415 23.364C59.827 23.364 59.68 23.217 59.68 21.894V11.212H54.094ZM39.639 30.42V35.712H60.023V30.42H39.639ZM58.21 30.42V31.302C55.319 41.739 46.646 47.864 35.18 50.118C36.258 51.392 37.63 53.891 38.218 55.459C50.958 52.225 60.464 45.365 64.237 31.694L60.415 30.224L59.337 30.42H58.21ZM46.156 35.369L40.864 36.986C45.323 46.443 52.673 52.715 63.845 55.361C64.678 53.793 66.393 51.294 67.667 50.069C57.181 48.011 49.733 42.817 46.156 35.369ZM20.529 34.585L22.195 40.71C26.801 39.338 32.534 37.476 38.022 35.712L37.385 30.616C31.162 32.135 24.694 33.752 20.529 34.585ZM21.313 18.513V23.952H38.218V18.513H21.313ZM27.536 9.399V49.089C27.536 49.775 27.242 49.971 26.605 50.02C25.968 50.02 23.91 50.02 22.048 49.971C22.734 51.441 23.469 53.842 23.665 55.312C27.144 55.361 29.496 55.165 31.113 54.283C32.779 53.401 33.318 51.931 33.318 49.089V9.399H27.536ZM23.371 81.103C26.752 82.132 31.407 83.896 33.661 85.121L36.307 80.662C33.857 79.486 29.202 77.918 25.919 77.134L23.371 81.103ZM21.215 89.433L23.42 94.529C27.095 93.5 31.603 92.177 35.866 90.903L35.327 86.297C30.133 87.473 24.841 88.747 21.215 89.433ZM42.922 79.682L39.639 83.798H61.738V79.682H42.922ZM60.366 79.682V80.319C59.533 82.426 58.063 84.974 56.74 86.542L61.297 87.914C62.914 86.101 64.678 83.161 65.952 80.466L62.081 79.486L61.199 79.682H60.366ZM47.92 81.397C47.185 86.346 45.274 89.188 35.817 90.658C36.797 91.687 38.022 93.647 38.512 94.823C49.488 92.618 52.232 88.404 53.212 81.397H47.92ZM52.869 82.671L48.165 83.112C49.439 88.306 51.84 93.647 64.09 95.607C64.629 94.137 65.903 91.932 66.981 90.756C55.858 89.482 53.702 86.297 52.869 82.671ZM42.775 76.399C41.452 79.241 39.051 82.524 35.474 84.974C36.846 85.513 38.855 86.738 39.884 87.767C43.608 84.729 46.009 81.152 47.92 77.232L42.775 76.399ZM33.563 103.055H54.878V105.162H33.563V103.055ZM33.563 108.494H54.878V110.65H33.563V108.494ZM33.563 97.665H54.878V99.723H33.563V97.665ZM27.879 94.137V114.129H60.807V94.137H27.879ZM46.744 116.677C51.693 118.539 56.74 120.891 59.484 122.557L66.344 119.911C62.865 118.196 56.789 115.746 51.644 113.884L46.744 116.677ZM35.866 113.737C32.534 115.599 26.703 117.314 21.509 118.294C22.832 119.274 24.841 121.43 25.87 122.606C30.868 121.185 37.238 118.735 41.256 116.138L35.866 113.737Z" fill="white"/>
</svg>
