<svg width="88" height="536" viewBox="0 0 88 536" fill="none" xmlns="http://www.w3.org/2000/svg">
<path d="M27.144 16.21V23.07C28.516 22.972 31.162 22.874 33.22 22.874H55.27V47.08C55.27 48.893 55.221 50.657 55.172 52.127H62.277C62.179 50.608 62.032 48.06 62.032 46.345V20.963C62.032 19.493 62.13 17.582 62.179 16.406C61.346 16.455 59.337 16.553 57.916 16.553H33.22C31.505 16.553 29.006 16.406 27.144 16.21ZM26.556 42.817V49.873C28.173 49.677 30.917 49.579 32.828 49.579H59.141V43.111H32.632C30.427 43.111 28.222 42.964 26.556 42.817ZM31.309 80.76L26.654 85.709C30.231 88.159 36.405 93.5 38.953 96.244L43.951 91.148C41.06 88.159 34.69 83.063 31.309 80.76ZM25.135 113.394L29.3 119.862C36.16 118.686 42.481 115.991 47.479 113.002C55.368 108.249 61.885 101.487 65.56 94.823L61.787 87.963C58.651 94.578 52.281 102.026 43.902 107.024C39.149 109.817 32.828 112.316 25.135 113.394ZM56.152 163.391V150.553C56.152 148.593 56.348 147.025 56.446 146.045H49.439C49.635 146.976 49.733 148.593 49.733 150.553V163.587C49.733 175.641 45.617 179.904 36.111 183.187L41.354 188.136C53.212 182.893 56.152 175.494 56.152 163.391ZM38.414 146.437H31.456C31.652 147.956 31.75 149.475 31.75 150.847V168.389C31.75 170.594 31.603 172.603 31.505 173.534H38.365C38.267 172.603 38.12 170.594 38.12 168.389V150.896C38.12 148.936 38.316 147.368 38.414 146.437ZM22.293 155.257V161.921C23.42 161.872 25.135 161.774 27.585 161.774H59.778C62.326 161.774 64.09 161.774 65.168 161.921V155.404C63.796 155.6 62.326 155.747 59.729 155.747H27.585C25.184 155.747 23.175 155.404 22.293 155.257ZM44.098 250.922L48.214 254.303C48.704 253.96 49.292 253.421 50.321 252.882C55.858 250.089 62.865 244.797 66.932 239.505L63.208 234.066C59.876 238.819 55.074 242.69 51.056 244.405C51.056 241.416 51.056 222.747 51.056 218.827C51.056 216.622 51.399 214.662 51.399 214.564H44.147C44.147 214.662 44.49 216.573 44.49 218.778C44.49 222.747 44.49 244.748 44.49 247.345C44.49 248.668 44.343 249.991 44.098 250.922ZM21.411 250.236L27.389 254.205C31.603 250.481 34.641 245.63 36.16 240.142C37.434 235.193 37.581 224.854 37.581 219.023C37.581 217.014 37.924 214.809 37.924 214.613H30.721C31.015 215.838 31.211 217.112 31.211 219.121C31.211 225.001 31.162 234.311 29.741 238.476C28.418 242.69 25.772 247.198 21.411 250.236ZM29.349 281.466V287.787C30.819 287.689 32.926 287.591 34.592 287.591C37.679 287.591 51.399 287.591 54.29 287.591C55.956 287.591 57.867 287.689 59.533 287.787V281.466C57.867 281.662 55.907 281.809 54.29 281.809C51.399 281.809 37.679 281.809 34.592 281.809C32.926 281.809 30.917 281.662 29.349 281.466ZM23.616 293.961V300.38C24.988 300.282 26.899 300.233 28.32 300.233C31.407 300.233 57.524 300.233 60.415 300.233C61.787 300.233 63.649 300.282 64.923 300.331V293.961C63.6 294.206 61.444 294.255 60.415 294.255C57.524 294.255 31.407 294.255 28.32 294.255C26.801 294.255 25.086 294.157 23.616 293.961ZM48.704 297.391L41.893 297.44C41.893 302.683 41.207 307.289 38.757 311.013C36.846 313.904 33.367 316.697 29.888 318.069L35.67 322.234C39.982 319.98 43.804 316.207 45.47 312.777C47.577 308.71 48.704 303.81 48.704 297.391ZM24.694 372.084L27.585 377.817C33.171 376.151 40.717 372.868 45.127 370.271C50.468 367.135 56.397 362.529 59.337 359.344L54.486 354.591C51.938 357.776 47.038 362.137 42.236 365.028C38.365 367.38 31.113 370.663 24.694 372.084ZM41.697 368.899V385.02C41.697 386.784 41.55 389.381 41.403 390.361H48.704C48.41 389.381 48.361 386.784 48.361 385.02V367.625L41.697 368.899ZM31.309 415.76L26.654 420.709C30.231 423.159 36.405 428.5 38.953 431.244L43.951 426.148C41.06 423.159 34.69 418.063 31.309 415.76ZM25.135 448.394L29.3 454.862C36.16 453.686 42.481 450.991 47.479 448.002C55.368 443.249 61.885 436.487 65.56 429.823L61.787 422.963C58.651 429.578 52.281 437.026 43.902 442.024C39.149 444.817 32.828 447.316 25.135 448.394ZM57.671 479.869L53.751 481.486C55.074 483.348 56.593 486.288 57.622 488.297L61.542 486.582C60.611 484.769 58.896 481.682 57.671 479.869ZM63.453 477.664L59.582 479.281C60.905 481.094 62.473 483.985 63.502 485.994L67.422 484.328C66.54 482.613 64.727 479.526 63.453 477.664ZM62.032 490.649L57.034 487.562C55.907 487.954 54.29 488.15 52.771 488.15C51.203 488.15 40.962 488.15 38.757 488.15L36.503 493.736H53.016C52.232 497.362 49.39 503.242 46.058 507.064C41.795 511.915 36.356 516.178 26.311 519.216L32.093 524.361C41.305 520.735 47.234 516.227 51.889 510.543C56.299 505.104 59.092 498.538 60.415 494.177C60.807 492.952 61.493 491.629 62.032 490.649ZM46.058 482.907L38.904 480.555C38.463 482.221 37.434 484.524 36.699 485.7C34.249 489.914 29.986 496.235 21.362 501.478L26.899 505.545C33.906 500.743 39.786 493.834 43.069 487.905C43.657 486.876 44.931 484.622 46.058 482.907Z" fill="white"/>
</svg>
