<svg width="88" height="268" viewBox="0 0 88 268" fill="none" xmlns="http://www.w3.org/2000/svg">
<path d="M34.641 29.048V34.634H66.442V29.048H34.641ZM37.091 16.455V22.041H64.09V16.455H37.091ZM47.283 9.399V33.115H53.408V9.399H47.283ZM34.641 47.521L35.425 53.45C42.334 52.96 52.036 52.225 61.199 51.441V46.149C51.546 46.688 41.207 47.276 34.641 47.521ZM53.408 40.759C56.985 45.267 60.709 51.441 62.032 55.459L67.618 52.372C66.099 48.207 62.13 42.425 58.504 38.064L53.408 40.759ZM43.51 32.968C42.236 38.015 39.786 44.728 37.581 49.04L42.824 50.706C45.078 46.639 47.871 40.367 50.027 34.683L43.51 32.968ZM23.665 13.907C26.899 15.279 30.966 17.631 32.877 19.395L36.307 14.593C34.249 12.878 30.084 10.771 26.899 9.595L23.665 13.907ZM20.872 27.284C24.106 28.509 28.222 30.714 30.182 32.331L33.465 27.431C31.309 25.814 27.095 23.903 23.91 22.825L20.872 27.284ZM22.244 50.951L27.34 54.773C30.084 50.02 32.975 44.434 35.376 39.24L30.917 35.516C28.222 41.151 24.694 47.276 22.244 50.951ZM26.507 84.337V89.482H36.209V112.169H26.507V117.363H41.55V84.337H26.507ZM23.077 84.337V120.989H28.418V84.337H23.077ZM26.262 97.42V102.516H38.806V97.42H26.262ZM30.035 76.35C29.79 79.045 29.104 82.818 28.418 85.366L33.122 86.395C34.102 84.092 35.327 80.613 36.454 77.281L30.035 76.35ZM48.018 83.994V89.335H62.326V83.994H48.018ZM60.317 83.994V85.121C59.778 105.554 59.141 113.982 57.573 115.648C56.936 116.334 56.397 116.53 55.417 116.53C54.192 116.53 51.252 116.481 48.067 116.236C49.145 117.804 49.929 120.303 50.027 121.92C52.869 122.067 55.858 122.116 57.72 121.822C59.729 121.528 61.101 120.989 62.473 119.078C64.482 116.481 65.07 108.69 65.707 86.64C65.756 85.905 65.756 83.994 65.756 83.994H60.317ZM48.165 76.399C46.597 82.916 43.804 89.58 40.521 93.696C41.893 94.48 44.294 96.146 45.372 97.126C48.704 92.422 51.889 84.974 53.8 77.722L48.165 76.399ZM45.764 98.106C48.116 101.732 51.203 106.534 52.526 109.523L57.524 106.485C56.005 103.594 52.771 98.89 50.37 95.509L45.764 98.106ZM35.621 166.723L30.084 168.634C36.454 180.59 46.842 187.156 63.355 189.508C64.188 187.842 65.805 185.147 67.128 183.775C51.35 182.011 40.668 176.376 35.621 166.723ZM25.282 161.382V167.115H56.691V161.382H25.282ZM22.881 149.867V155.698H64.874V149.867H22.881ZM40.766 143.399V163.979H46.891V143.399H40.766ZM54.78 161.382V162.46C50.321 175.788 37.336 181.57 20.872 183.726C21.999 185.049 23.518 187.842 24.057 189.41C41.06 186.568 55.319 179.414 61.199 163.538L57.083 161.186L56.054 161.382H54.78ZM37.826 223.825V228.431H64.874V223.825H37.826ZM36.797 230.685V235.438H66.393V230.685H36.797ZM43.167 237.398V241.661H59.729V237.398H43.167ZM39.002 218.533C39.737 220.395 40.619 222.943 40.962 224.462L45.666 222.992C45.225 221.522 44.245 219.072 43.461 217.308L39.002 218.533ZM47.528 217.651C48.018 219.66 48.459 222.306 48.606 223.874L53.457 222.845C53.212 221.326 52.673 218.778 52.134 216.867L47.528 217.651ZM61.689 210.644C55.564 211.918 45.519 212.702 36.846 212.947C37.385 214.123 38.022 216.034 38.12 217.308C46.94 217.21 57.524 216.475 64.972 214.956L61.689 210.644ZM48.018 240.681L43.314 242.053C47.43 249.599 54.339 254.45 64.09 256.508C64.825 255.038 66.344 252.833 67.52 251.657C58.357 250.236 51.35 246.414 48.018 240.681ZM58.847 215.936C57.965 218.484 56.201 222.012 54.731 224.315L58.798 225.785C60.415 223.678 62.473 220.493 64.286 217.504L58.847 215.936ZM58.553 237.398V238.182C56.299 246.365 49.978 250.383 41.207 252.147C42.236 253.127 43.804 255.283 44.392 256.508C53.702 254.156 60.856 249.06 63.747 238.525L60.562 237.251L59.631 237.398H58.553ZM43.706 226.716C43.069 235.291 42.236 246.169 32.583 252.098C33.955 253.078 35.572 254.94 36.356 256.312C46.989 249.354 48.557 237.153 49.341 226.716H43.706ZM20.676 236.614L21.509 242.347C25.968 241.073 31.505 239.505 36.699 237.937L35.964 232.645C30.378 234.164 24.596 235.732 20.676 236.614ZM21.264 219.709V225.099H36.258V219.709H21.264ZM26.458 210.448V250.187C26.458 250.873 26.213 251.02 25.625 251.02C25.037 251.069 23.322 251.069 21.558 250.971C22.244 252.588 22.93 254.989 23.077 256.459C26.262 256.459 28.369 256.263 29.839 255.332C31.358 254.45 31.848 252.931 31.848 250.187V210.448H26.458Z" fill="white"/>
</svg>
