<svg width="88" height="336" viewBox="0 0 88 336" fill="none" xmlns="http://www.w3.org/2000/svg">
<path d="M29.349 13.966V20.287C30.819 20.189 32.926 20.091 34.592 20.091C37.679 20.091 51.399 20.091 54.29 20.091C55.956 20.091 57.867 20.189 59.533 20.287V13.966C57.867 14.162 55.907 14.309 54.29 14.309C51.399 14.309 37.679 14.309 34.592 14.309C32.926 14.309 30.917 14.162 29.349 13.966ZM23.616 26.461V32.88C24.988 32.782 26.899 32.733 28.32 32.733C31.407 32.733 57.524 32.733 60.415 32.733C61.787 32.733 63.649 32.782 64.923 32.831V26.461C63.6 26.706 61.444 26.755 60.415 26.755C57.524 26.755 31.407 26.755 28.32 26.755C26.801 26.755 25.086 26.657 23.616 26.461ZM48.704 29.891L41.893 29.94C41.893 35.183 41.207 39.789 38.757 43.513C36.846 46.404 33.367 49.197 29.888 50.569L35.67 54.734C39.982 52.48 43.804 48.707 45.47 45.277C47.577 41.21 48.704 36.31 48.704 29.891ZM63.551 88.071L58.504 84.935C57.426 85.327 55.76 85.523 54.241 85.523C52.722 85.523 42.432 85.523 40.276 85.523L38.022 91.109H54.535C53.751 94.735 50.909 100.615 47.577 104.437C43.265 109.288 37.826 113.551 27.83 116.589L33.612 121.734C42.824 118.108 48.704 113.6 53.359 107.916C57.818 102.477 60.611 95.96 61.934 91.55C62.326 90.325 63.012 89.002 63.551 88.071ZM47.577 80.28L40.374 77.928C39.933 79.643 38.904 81.897 38.169 83.073C35.768 87.287 31.456 93.608 22.881 98.851L28.369 102.918C35.425 98.116 41.256 91.207 44.588 85.278C45.127 84.249 46.401 81.995 47.577 80.28ZM27.781 152.229V159.334C29.447 159.285 31.701 159.187 33.563 159.187C36.307 159.187 51.252 159.187 53.849 159.187C55.564 159.187 57.867 159.285 59.288 159.334V152.229C57.867 152.425 55.809 152.523 53.849 152.523C51.154 152.523 37.679 152.523 33.563 152.523C31.848 152.523 29.594 152.425 27.781 152.229ZM23.665 176.239V183.736C25.527 183.54 27.879 183.393 29.839 183.393C32.926 183.393 54.878 183.393 57.965 183.393C59.386 183.393 61.591 183.54 63.355 183.736V176.239C61.689 176.386 59.582 176.533 57.965 176.533C54.878 176.533 32.926 176.533 29.839 176.533C27.879 176.533 25.576 176.337 23.665 176.239ZM45.568 213.202H38.316C38.512 214.378 38.708 216.632 38.708 217.71C38.659 230.646 36.405 238.976 29.986 245.346C28.026 247.355 25.576 248.972 23.518 250.099L29.251 254.705C40.08 247.012 44.686 237.065 45.225 217.612C45.274 216.436 45.421 214.378 45.568 213.202ZM62.179 223.737L57.965 221.63C56.789 221.875 55.515 221.973 54.241 221.973H31.554C29.692 221.973 27.193 221.875 25.135 221.63V228.098C27.193 227.902 29.937 227.853 31.603 227.853H55.515C55.515 233.145 54.829 242.945 53.408 246.032C52.918 247.257 52.232 247.796 50.664 247.796C48.704 247.796 46.205 247.502 43.755 247.11L44.539 253.627C46.94 253.823 49.831 254.068 52.673 254.068C56.005 254.068 57.916 252.745 58.945 250.295C61.052 245.297 61.689 231.626 61.885 226.285C61.885 225.746 62.032 224.521 62.179 223.737ZM44.098 318.422L48.214 321.803C48.704 321.46 49.292 320.921 50.321 320.382C55.858 317.589 62.865 312.297 66.932 307.005L63.208 301.566C59.876 306.319 55.074 310.19 51.056 311.905C51.056 308.916 51.056 290.247 51.056 286.327C51.056 284.122 51.399 282.162 51.399 282.064H44.147C44.147 282.162 44.49 284.073 44.49 286.278C44.49 290.247 44.49 312.248 44.49 314.845C44.49 316.168 44.343 317.491 44.098 318.422ZM21.411 317.736L27.389 321.705C31.603 317.981 34.641 313.13 36.16 307.642C37.434 302.693 37.581 292.354 37.581 286.523C37.581 284.514 37.924 282.309 37.924 282.113H30.721C31.015 283.338 31.211 284.612 31.211 286.621C31.211 292.501 31.162 301.811 29.741 305.976C28.418 310.19 25.772 314.698 21.411 317.736Z" fill="white"/>
</svg>
