<svg width="88" height="536" viewBox="0 0 88 536" fill="none" xmlns="http://www.w3.org/2000/svg">
<path d="M60.807 14.985L53.506 12.486C53.261 13.711 52.771 15.72 52.33 16.994C50.615 21.894 48.41 26.941 44.539 32.037C39.345 38.799 33.22 44.238 24.302 48.501L29.741 53.499C39.247 48.256 45.274 41.935 49.831 36.055C53.898 30.763 56.887 24.295 58.749 19.444C59.19 18.268 60.121 16.112 60.807 14.985ZM33.857 19.738L29.643 24.736C35.817 28.509 41.55 32.919 45.078 35.859C50.272 40.171 54.584 44.189 58.847 49.187L63.894 43.552C59.925 39.338 54.78 34.732 49.537 30.665C45.421 27.431 38.708 22.776 33.857 19.738ZM28.663 81.054V87.375C30.182 87.277 32.24 87.179 33.955 87.179C36.993 87.179 47.087 87.179 49.978 87.179C51.644 87.179 53.555 87.277 55.221 87.375V81.054C53.555 81.25 51.644 81.397 49.978 81.397C47.087 81.397 36.993 81.397 33.906 81.397C32.289 81.397 30.231 81.25 28.663 81.054ZM23.028 93.549V99.968C24.351 99.87 26.262 99.821 27.683 99.821C30.77 99.821 56.887 99.821 59.778 99.821C61.15 99.821 63.061 99.87 64.286 99.968V93.549C62.963 93.794 60.807 93.892 59.778 93.892C56.887 93.892 30.77 93.892 27.683 93.892C26.164 93.892 24.449 93.745 23.028 93.549ZM48.067 96.979L41.256 97.028C41.256 102.271 40.619 106.926 38.169 110.601C36.209 113.492 32.73 116.285 29.251 117.657L35.033 121.822C39.394 119.617 43.167 115.795 44.882 112.414C46.94 108.298 48.067 103.398 48.067 96.979ZM58.161 77.673L54.29 79.241C55.613 81.152 57.132 84.043 58.112 86.052L62.032 84.386C61.15 82.573 59.386 79.437 58.161 77.673ZM63.943 75.468L60.072 77.036C61.444 78.898 63.012 81.74 64.041 83.798L67.912 82.132C67.03 80.417 65.217 77.281 63.943 75.468ZM24.694 171.084L27.585 176.817C33.171 175.151 40.717 171.868 45.127 169.271C50.468 166.135 56.397 161.529 59.337 158.344L54.486 153.591C51.938 156.776 47.038 161.137 42.236 164.028C38.365 166.38 31.113 169.663 24.694 171.084ZM41.697 167.899V184.02C41.697 185.784 41.55 188.381 41.403 189.361H48.704C48.41 188.381 48.361 185.784 48.361 184.02V166.625L41.697 167.899ZM66.246 218.876L62.375 215.25C61.444 215.495 58.749 215.691 57.377 215.691C54.829 215.691 34.053 215.691 30.966 215.691C28.957 215.691 26.899 215.446 24.988 215.152V222.012C27.291 221.767 28.957 221.669 30.966 221.669C34.053 221.669 53.555 221.669 56.544 221.669C55.27 224.07 51.448 228.382 47.479 230.783L52.575 234.85C57.426 231.42 62.081 225.197 64.384 221.375C64.825 220.689 65.756 219.513 66.246 218.876ZM46.303 225.442H39.198C39.443 227.059 39.492 228.333 39.492 229.901C39.492 237.937 38.316 243.082 32.142 247.394C30.329 248.766 28.565 249.599 26.948 250.138L32.681 254.793C46.009 247.59 46.303 237.594 46.303 225.442ZM56.152 297.391V284.553C56.152 282.593 56.348 281.025 56.446 280.045H49.439C49.635 280.976 49.733 282.593 49.733 284.553V297.587C49.733 309.641 45.617 313.904 36.111 317.187L41.354 322.136C53.212 316.893 56.152 309.494 56.152 297.391ZM38.414 280.437H31.456C31.652 281.956 31.75 283.475 31.75 284.847V302.389C31.75 304.594 31.603 306.603 31.505 307.534H38.365C38.267 306.603 38.12 304.594 38.12 302.389V284.896C38.12 282.936 38.316 281.368 38.414 280.437ZM22.293 289.257V295.921C23.42 295.872 25.135 295.774 27.585 295.774H59.778C62.326 295.774 64.09 295.774 65.168 295.921V289.404C63.796 289.6 62.326 289.747 59.729 289.747H27.585C25.184 289.747 23.175 289.404 22.293 289.257ZM57.475 349.299C57.475 347.829 58.651 346.604 60.121 346.604C61.591 346.604 62.816 347.829 62.816 349.299C62.816 350.769 61.591 351.945 60.121 351.945C58.651 351.945 57.475 350.769 57.475 349.299ZM54.486 349.299C54.486 352.435 56.985 354.934 60.121 354.934C63.257 354.934 65.805 352.435 65.805 349.299C65.805 346.163 63.257 343.615 60.121 343.615C56.985 343.615 54.486 346.163 54.486 349.299ZM47.724 347.339H40.472C40.619 348.221 40.864 350.328 40.864 351.602C40.864 354.591 40.864 359.834 40.864 361.549C40.864 363.852 40.864 379.336 40.815 381.198C40.766 382.472 40.325 382.913 39.051 382.913C37.826 382.913 35.67 382.766 33.612 382.374L34.2 388.45C36.65 388.744 39.541 388.842 42.138 388.842C45.617 388.842 47.283 387.078 47.283 384.236C47.283 380.12 47.283 365.518 47.283 361.549C47.283 358.707 47.283 354.542 47.283 351.651C47.283 350.426 47.577 348.025 47.724 347.339ZM23.714 355.179V361.647C25.086 361.5 26.948 361.451 28.418 361.451C31.652 361.451 55.221 361.451 58.749 361.451C60.072 361.451 61.983 361.5 63.502 361.647V355.228C62.179 355.375 60.072 355.522 58.7 355.522C55.172 355.522 31.407 355.522 28.418 355.522C26.899 355.522 25.184 355.375 23.714 355.179ZM36.209 368.458L30.623 365.812C28.614 369.977 24.694 375.367 21.411 378.503L26.752 382.08C29.398 379.189 33.955 372.77 36.209 368.458ZM57.23 365.665L51.889 368.556C54.29 371.594 57.769 377.523 59.876 381.737L65.609 378.552C63.649 374.975 59.729 368.801 57.23 365.665ZM23.959 430.313V438.055C25.821 437.908 29.104 437.761 31.848 437.761C37.63 437.761 53.751 437.761 58.21 437.761C60.268 437.761 62.767 438.006 63.943 438.055V430.313C62.62 430.411 60.464 430.656 58.161 430.656C53.8 430.656 37.63 430.656 31.848 430.656C29.3 430.656 25.772 430.46 23.959 430.313ZM34.837 515.345C34.837 517.256 34.69 520.245 34.347 522.156H42.04C41.795 520.147 41.599 516.717 41.599 515.345C41.599 511.719 41.55 492.56 41.55 487.17C41.55 485.112 41.795 483.005 41.991 481.241H34.347C34.69 483.005 34.837 485.406 34.837 487.17C34.837 491.286 34.837 511.572 34.837 515.345ZM40.129 493.932V500.988C45.47 502.752 53.702 505.888 59.288 508.779L62.032 501.968C57.23 499.616 46.646 495.745 40.129 493.932Z" fill="white"/>
</svg>
